<?xml version="1.0" standalone="no"?>
<svg viewBox="0 0 200 200" xmlns="http://www.w3.org/2000/svg">
  <path fill="#FFC72C" d="M41.8,-74.2C52.2,-66.5,57.2,-51.2,58,-37.6C58.8,-24,55.4,-12,53.5,-1.1C51.6,9.8,51.2,19.5,46.8,26.9C42.4,34.3,34,39.4,25.5,48.3C17.1,57.1,8.5,69.9,-3.5,76C-15.6,82.1,-31.2,81.5,-41.7,73.8C-52.2,66.1,-57.7,51.3,-65.5,37.8C-73.3,24.3,-83.4,12.1,-81.9,0.9C-80.4,-10.4,-67.3,-20.9,-56.5,-29.1C-45.7,-37.4,-37.1,-43.4,-28.1,-51.9C-19.1,-60.4,-9.5,-71.2,3.1,-76.6C15.7,-82,31.5,-81.9,41.8,-74.2Z" transform="translate(100 100)" />
</svg>
