<?xml version="1.0" standalone="no"?>
<svg viewBox="0 0 200 200" xmlns="http://www.w3.org/2000/svg">
  <path fill="#FFC72C" d="M38,-75.4C43.9,-62.4,39.7,-41.5,46.1,-27.6C52.5,-13.7,69.5,-6.8,74.5,2.9C79.5,12.6,72.5,25.2,62.1,32.2C51.7,39.1,37.9,40.5,27,45.7C16.1,50.9,8,60,-4.2,67.2C-16.4,74.5,-32.8,79.9,-40.2,72.7C-47.6,65.4,-45.9,45.5,-50,31.2C-54.1,17,-63.9,8.5,-63.9,0C-64,-8.5,-54.1,-17.1,-49.2,-29.8C-44.2,-42.5,-44.1,-59.3,-36.7,-71.4C-29.3,-83.5,-14.7,-90.9,0.7,-92.1C16,-93.3,32.1,-88.3,38,-75.4Z" transform="translate(100 100)" />
</svg>
