<?xml version="1.0" encoding="utf-8"?>
<!-- Generator: Adobe Illustrator 13.0.0, SVG Export Plug-In . SVG Version: 6.00 Build 14948)  -->
<!DOCTYPE svg PUBLIC "-//W3C//DTD SVG 1.1//EN" "http://www.w3.org/Graphics/SVG/1.1/DTD/svg11.dtd">
<svg version="1.1" id="Layer_1" xmlns="http://www.w3.org/2000/svg" xmlns:xlink="http://www.w3.org/1999/xlink" x="0px" y="0px"
	 width="924.812px" height="987.377px" viewBox="0 0 924.812 987.377" enable-background="new 0 0 924.812 987.377"
	 xml:space="preserve">
<g>
	<path fill="#FFC72C" fill-opacity="1" d="M924.812,4.941c-89.279,8.908-113.664,96.951-318.279,18.392c-129.667-49.784-208.666-6.581-244,7.612
		c-18.525,7.442-35.885,18.273-50.466,32.384c-35.474,34.329-43.92,87.281-28.889,137.007l-0.019,0.008
		c7.866,26.648,1.747,58.522-19.034,84.495c-23.338,29.167-58.747,42.875-90.227,38.063c-9.566-1.921-19.49-2.937-29.677-2.937
		C64.968,319.965,0,381.049,0,457.745c0,36.083,14.224,68.949,37.537,93.641c17.451,19.517,28.352,47.121,28.352,77.745
		c0,25.632-7.635,49.149-20.354,67.581c-20.144,24.085-32.092,54.052-32.092,86.536c0,79.472,71.475,143.894,159.642,143.894
		c29.341,0,56.828-7.141,80.453-19.591c38.269-18.017,86.502-28.769,138.936-28.769c79.852,0,149.99,24.922,189.965,62.496
		l0.014-0.003c31.732,28.536,74.948,46.101,122.582,46.101c65.035,0,121.841-32.736,152.415-81.449
		c9.136-12.482,36.209-44.6,67.362-35.686V4.941z"/>
</g>
</svg>
