<svg width="32" height="32" viewBox="0 0 32 32" fill="none" xmlns="http://www.w3.org/2000/svg">
<rect width="32" height="32" fill="white"/>
<path fill-rule="evenodd" clip-rule="evenodd" d="M20 3H12V1H20V3ZM26 17C26 22.5228 21.5228 27 16 27C10.4772 27 6 22.5228 6 17C6 11.4772 10.4772 7 16 7C21.5228 7 26 11.4772 26 17ZM16 29C22.6274 29 28 23.6274 28 17C28 14.4083 27.1784 12.0085 25.7814 10.0468L27.4141 8.41418L25.9998 6.99997L24.4852 8.51463C22.3136 6.34311 19.3137 5 16 5C9.37258 5 4 10.3726 4 17C4 23.6274 9.37258 29 16 29ZM15 10V18H17V10H15Z" fill="#787878"/>
</svg>
