<?xml version="1.0" encoding="utf-8"?>
<!-- Generator: Adobe Illustrator 22.1.0, SVG Export Plug-In . SVG Version: 6.00 Build 0)  -->
<svg version="1.1" id="Layer_1" xmlns="http://www.w3.org/2000/svg" xmlns:xlink="http://www.w3.org/1999/xlink" x="0px" y="0px"
	 width="2000px" height="2000px" viewBox="0 0 2000 2000" style="enable-background:new 0 0 2000 2000;" xml:space="preserve">
<style type="text/css">
	.st0{fill:transparent;}
	.st1{fill:#DBF3F3;}
	.st2{fill:#C9EDED;}
	.st3{fill:#C0EAEA;}
	.st4{fill:#FFE1AE;}
	.st5{fill:#FFD38A;}
	.st6{fill:#FFCC79;}
	.st7{fill:#FFF3E5;}
	.st8{fill:url(#SVGID_1_);}
	.st9{fill:#EF818A;}
	.st10{fill:url(#SVGID_2_);}
	.st11{fill:url(#SVGID_3_);}
	.st12{fill:url(#SVGID_4_);}
	.st13{fill:url(#SVGID_5_);}
	.st14{fill:#3E4464;}
	.st15{fill:url(#SVGID_6_);}
	.st16{fill:url(#SVGID_7_);}
	.st17{fill:#30384F;}
	.st18{fill:url(#SVGID_8_);}
	.st19{fill:#FCD297;}
	.st20{fill:url(#SVGID_9_);}
	.st21{fill:#FCB7A9;}
	.st22{fill:url(#SVGID_10_);}
	.st23{fill:#5C6289;}
	.st24{fill:#474F70;}
	.st25{fill:#EA6C70;}
	.st26{fill:url(#SVGID_11_);}
	.st27{fill:#FCD190;}
	.st28{fill:url(#SVGID_12_);}
	.st29{fill:#FFB9AE;}
	.st30{fill:#DD5761;}
	.st31{fill:#FFC76A;}
	.st32{fill:#F8A792;}
	.st33{fill:#4E537B;}
</style>
<g>
	<rect class="st0" width="2000" height="2000"/>
	<g>
		<g>
			<path class="st1" d="M812,1527.9c-45.1,0.4-90.3,0.6-135.4,0.6c-35,0-70-0.1-105-0.2c-5.4,6.3-11.7,11.6-18.2,15.4
				c-3.1,1.8-6.2,3.3-9.4,4.6c12,7,25.5,11.5,39.5,11.5c1.1,0,2.3,0,3.4-0.1c79.8-4.2,159.8-6.4,239.7-6.4c36.7,0,73.4,0.4,110,1.3
				c-8-1.7-16-3.3-24-5C879,1542.4,845.5,1535,812,1527.9z"/>
			<path class="st1" d="M1648,469.1c-36.5-67.8-87.9-127-152.3-169.5c-63.9-42.1-140.3-61.9-216-66.4c-7.8-0.5-15.5-0.7-23.3-0.7
				c-30.7,0-61.2,3.4-91.8,7.7c-32.1,4.5-63.7,11.9-94.6,22c-31.1,10.2-61.1,22.6-90.1,36.8c11.4,4.7,22.5,9.8,33.4,15.3
				c29.1,14.8,56.2,33.7,81.8,54.2c6.6,0.4,13.2,1,19.8,1.8c28.4,3.7,55.7,8.8,82.7,18.5c26.6,9.7,52.9,21.3,77.4,35.6
				c44.9,26.1,85.6,60.3,122,97.3c34,34.6,64.8,72.3,95.5,109.8c15.3,18.7,30.8,37.1,46.4,55.5c9.3,1.2,18.6,2.5,28,3.8
				c66.1,9.6,130.3,33.3,176.5,83.1c-5.5-33.2-12.1-66.2-19.9-98.8C1706.5,604,1682.8,533.6,1648,469.1z"/>
			<path class="st1" d="M162.7,1252.3c-5.9-16.6-10.5-33.5-14-50.6c-1.3,13.8-1.4,27.7-0.5,41.3c4.7,68,31.4,137.9,85.7,181.8
				c28.1,22.7,59.6,41.3,94.8,50.1c-16.2-11.8-31.7-24.5-46.3-38.1C228.1,1386.2,187.4,1322.2,162.7,1252.3z"/>
			<path class="st1" d="M1696.2,1424.9c-8.1,11.8-16.8,23-25.7,34.2c-9.7,12.1-20.4,23.4-32.1,33.6c-17,14.7-35.3,28.8-54.9,39.9
				c-20.3,11.4-42.2,20.6-64.3,28c-37.4,12.5-77.9,17.5-117.1,19.6c-9.9,0.5-19.9,0.8-29.8,0.8c-24.3,0-48.5-1.4-72.7-3.3
				c-76.1-6-152-13.6-228.3-17.8c-44.9-2.5-89.7-4.2-134.7-5.3c100.2,20.7,201.7,38.2,304,43.1c16.6,0.8,33.3,1.2,49.9,1.2
				c35.6,0,71.1-1.9,106.5-6.2c53.8-6.6,107.6-15.9,158.7-34.5c51.2-18.6,99-43.6,139.1-81c30.7-28.5,54.1-64.5,69.7-103.5
				c-1.6,1.6-3.3,3.2-4.9,4.8C1740.3,1396.5,1718.9,1411.9,1696.2,1424.9z"/>
			<path class="st2" d="M1198.8,465.9c48.7,51.6,95.6,105.3,151.1,149.8c24.4,18.1,50.3,34.2,77.9,46.9c29.1,11.1,59.2,17.3,90,21.7
				c7.1,0.9,14.1,1.8,21.2,2.8c-15.7-18.3-31.2-36.8-46.4-55.5c-30.7-37.6-61.4-75.2-95.5-109.8c-36.4-37-77-71.2-122-97.3
				c-24.5-14.2-50.8-25.9-77.4-35.6c-27-9.8-54.3-14.9-82.7-18.5c-6.6-0.9-13.2-1.5-19.8-1.8c7.5,6,14.8,12.1,22.1,18.2
				C1146.1,411.2,1172.8,438.3,1198.8,465.9z"/>
			<path class="st2" d="M1374.3,1499.9c-143.5,15.2-287.8,22.5-432.1,25.9c-43.4,1-86.8,1.7-130.3,2.1c33.5,7.2,67,14.5,100.6,21.6
				c8,1.7,16,3.4,24,5c44.9,1.1,89.8,2.9,134.7,5.3c76.3,4.2,152.2,11.8,228.3,17.8c24.2,1.9,48.5,3.3,72.7,3.3
				c9.9,0,19.9-0.2,29.8-0.8c39.2-2.1,79.7-7.1,117.1-19.6c22.1-7.4,44-16.5,64.3-28c19.7-11.1,37.9-25.2,54.9-39.9
				c11.7-10.1,22.4-21.4,32.1-33.6c8.9-11.2,17.7-22.5,25.7-34.2c-35.9,20.5-75.4,34.9-115.6,44.7
				C1513.2,1486,1443.2,1492.6,1374.3,1499.9z"/>
			<path class="st1" d="M507.5,1510.5c-21.8-9-43-19.3-63-31.6c-6.8,0-13.6,0.2-20.4,0.3c-11.6,2-23.3,2.9-35.1,2.9
				c-17.2,0-34.5-1.9-51.2-5.3c-3-0.6-6-1.3-8.9-2c50.5,36.6,108.4,63.7,169.4,75.9c6.5,1.3,13.1,2.1,19.6,2.1
				c8.9,0,17.7-1.4,26.1-4.7c-7.1-4.1-13.7-9.1-19.7-14.5C517,1527,511.6,1519.1,507.5,1510.5z"/>
			<path class="st1" d="M759.5,278.5c-84,22.6-146.2,85.3-190.9,157.2c-41.1,66-66.8,140.8-112.7,203.9
				c-13.7,16.6-28.8,31.5-45.5,45.1c-27.8,20.5-57.4,38.5-84.9,59.3c-31,23.5-59.2,48.5-83.2,79.2c-23.5,30.1-44.1,61.2-59.5,96.2
				c-15.3,35-28.1,70.4-34.7,108.1c-10.1,57.6-11.2,117,0.5,174.2c4.6-50.5,23.3-100.5,51.5-141.7c13.8-20.1,29.3-38.7,46.4-55.7
				c1.1-5.1,2.3-10.2,3.7-15.2c6.1-22.4,15-43.5,24-64.8c26.7-62.7,69.7-118.3,116.8-167c43.5-45,92.3-84.5,141.1-123.6
				c53.2-42.5,105.3-86.1,157.3-130.1c90.5-76.7,183.9-152.6,290.4-204.7c-45.7-18.8-94.8-30.3-144-30.3
				C810.4,268.6,784.8,271.7,759.5,278.5z"/>
			<path class="st1" d="M1836.8,959c-17.6-65.2-43.9-128.2-88.5-179.6c-1.6-1.9-3.2-3.7-4.9-5.5c8.5,51.1,14.5,102.7,19,154.2
				c3.4,38.7,5.7,77.4,7.3,116.2c0.2,4.3,0.4,8.6,0.5,12.9c9.9,40.1,15.7,81.4,18.7,122.5c3.7,51.6,1.1,104.7-11.8,155
				c-3.4,13.2-7.6,26.3-12.8,39.1c47.6-47.2,78.7-112.9,89.3-178.7c6.2-38.8,8.6-77.4,4.8-116.6
				C1854.6,1038,1847.4,998.1,1836.8,959z"/>
			<path class="st2" d="M451,1478.9c-2.2,0-4.3,0-6.5,0c20.1,12.3,41.3,22.6,63,31.6c4.1,8.6,9.5,16.5,16.7,23.1
				c5.9,5.4,12.5,10.4,19.7,14.5c3.2-1.2,6.3-2.8,9.4-4.6c6.5-3.8,12.8-9.1,18.2-15.4c35,0.1,70,0.2,105,0.2
				c45.1,0,90.3-0.2,135.4-0.6c-68.5-14.7-137.1-28.6-206.5-38.4C554.2,1482.9,502.6,1478.9,451,1478.9z"/>
			<path class="st2" d="M1762.5,928.1c-4.5-51.5-10.5-103.1-19-154.2c-46.1-49.8-110.4-73.5-176.5-83.1c-9.3-1.4-18.6-2.6-28-3.8
				c15.8,18.6,31.9,37,48,55.3c35.8,40.8,71.1,82.6,101.3,127.7c30.2,45.2,53.6,95,70.4,146.6c4.3,13.3,8.2,26.8,11.5,40.4
				c-0.2-4.3-0.3-8.6-0.5-12.9C1768.2,1005.5,1765.8,966.7,1762.5,928.1z"/>
			<path class="st2" d="M980.1,298.9c-106.5,52.1-200,128-290.4,204.7c-51.9,44-104.1,87.6-157.3,130.1
				c-48.8,39-97.6,78.6-141.1,123.6c-47.1,48.7-90.1,104.3-116.8,167c-9.1,21.3-17.9,42.4-24,64.8c-1.4,5.1-2.6,10.1-3.7,15.2
				c28.6-28.6,61.6-52.7,97.8-71.7c51.8-27.3,107.6-45.9,161.7-68.2c30.6-13.3,60.4-28.6,87.4-48.2c21.1-17.4,39.9-37.3,57-58.6
				c11-14.7,21.2-29.9,31.1-45.3c24.4-38.2,46.1-78,69.9-116.5c25.7-41.4,54.5-81.8,88.1-117.2c34.6-36.4,75.6-66.8,121.9-86.3
				c37.4-15.8,77.3-24.4,117.7-24.4c5.3,0,10.7,0.2,16,0.5c-25.6-20.5-52.7-39.4-81.8-54.2C1002.6,308.7,991.4,303.5,980.1,298.9z"
				/>
			<path class="st2" d="M340.8,1390.9c-25-29.9-47.3-61.6-63.2-97.3c-16.3-36.8-29.7-73.8-35.6-113.8c-6-41-9.2-80.9-3.9-122.1
				c2.3-18,4.7-35.8,8.5-53.5c-17.1,17-32.6,35.6-46.4,55.7c-28.2,41.1-46.9,91.2-51.5,141.7c3.5,17.1,8.1,34,14,50.6
				c24.7,69.9,65.4,133.9,119.8,184.5c14.6,13.6,30.1,26.3,46.3,38.1c2.9,0.7,5.9,1.4,8.9,2c16.8,3.3,34,5.3,51.2,5.3
				c11.8,0,23.5-0.9,35.1-2.9c6.8-0.2,13.6-0.3,20.4-0.3c-6.1-3.7-12.1-7.7-18-11.8C395.2,1445,365.4,1420.4,340.8,1390.9z"/>
			<path class="st2" d="M1770.3,1057.1c1.3,34.6,2.1,69.2,0.7,103.7c-3.5,84.2-19.4,168.2-61.2,242.3c-4.2,7.5-8.8,14.6-13.6,21.7
				c22.8-13,44.1-28.3,63.3-46.5c1.7-1.6,3.3-3.2,4.9-4.8c5.1-12.8,9.4-25.8,12.8-39.1c12.9-50.3,15.4-103.4,11.8-155
				C1786,1138.5,1780.2,1097.2,1770.3,1057.1z"/>
			<path class="st3" d="M1758.7,1016.7c-16.9-51.6-40.2-101.5-70.4-146.6c-30.3-45.2-65.5-86.9-101.3-127.7
				c-16.1-18.4-32.1-36.8-48-55.3c-7.1-0.9-14.1-1.8-21.2-2.8c-30.8-4.4-60.9-10.6-90-21.7c-27.7-12.7-53.5-28.7-77.9-46.9
				c-55.5-44.5-102.4-98.1-151.1-149.8c-26-27.6-52.6-54.6-81.5-79.2c-7.2-6.2-14.6-12.3-22.1-18.2c-5.3-0.3-10.7-0.5-16-0.5
				c-40.3,0-80.3,8.6-117.7,24.4c-46.3,19.5-87.3,50-121.9,86.3c-33.6,35.4-62.5,75.8-88.1,117.2c-23.8,38.5-45.6,78.3-69.9,116.5
				c-9.9,15.5-20.2,30.6-31.1,45.3c-17.1,21.3-35.9,41.1-57,58.6c-27.1,19.6-56.8,34.8-87.4,48.2c-54.1,22.2-109.9,40.8-161.7,68.2
				c-36.2,19.1-69.1,43.2-97.8,71.7c-3.8,17.6-6.3,35.5-8.5,53.5c-5.2,41.2-2.1,81.1,3.9,122.1c5.8,39.9,19.3,77,35.6,113.8
				c15.8,35.7,38.2,67.4,63.2,97.3c24.6,29.5,54.4,54.1,85.7,76.2c5.9,4.1,11.9,8.1,18,11.8c2.2,0,4.3,0,6.5,0
				c51.7,0,103.3,4,154.5,10.5c69.4,9.8,138,23.8,206.5,38.4c43.4-0.4,86.8-1.1,130.3-2.1c144.3-3.4,288.5-10.7,432.1-25.9
				c68.9-7.3,138.9-13.9,206.3-30.4c40.2-9.8,79.6-24.3,115.6-44.7c4.8-7,9.4-14.2,13.6-21.7c41.8-74.1,57.7-158.1,61.2-242.3
				c1.4-34.6,0.7-69.2-0.7-103.7C1766.9,1043.5,1763.1,1030,1758.7,1016.7z"/>
		</g>
		<g>
			<path class="st4" d="M537.5,1384.4c3.7,0,7.5-0.1,11.2-0.1c-88.9-4.2-177.7-8.6-266.6-12.1c-3.3-0.1-6.6-0.2-9.9-0.2
				c-25.9,0-52.9,4.2-75.1,18.1c-34,21.2-55.6,59.2-53.8,99.7c0.3,6.5,1,12.9,2.1,19.1c10.1-40.4,37.3-75.3,71.6-98.2
				c20.3-13.6,44.1-21.7,68.6-26.1c1.8-0.7,3.7-1.5,5.6-2.1c10.7-3.9,22.6-4.9,33.8-6c4.3-0.4,8.6-0.6,13-0.6c1.6,0,3.3,0,4.9,0.1
				c12.6,0.3,25.2,1.1,37.8,1.6c52.2,2.3,104.4,4.6,156.6,6.8L537.5,1384.4z"/>
			<path class="st4" d="M1818.8,1418.2c-17-16-36.7-25.3-57.8-30.6c15.8,10.2,27.9,24.3,35.1,40.8c16.5,20.2,26.6,45.2,25.4,72.3
				c-0.9,19.4-5.5,35-13.8,52.4c-5.1,10.7-13.1,20-20.6,29.1c-12.8,15.6-30.3,27.5-47,38.6c-29.8,19.9-62.7,34.8-96.3,47.2
				c-63,23.3-132.1,32.4-199,33.1c-2.6,0-5.2,0-7.8,0c-101.4,0-200.7-20.5-300.1-39.4c-7,2.5-14,5.1-20.9,7.9
				c-30.9,13.4-61.3,27.9-92.6,40.6c-41,16.6-83.7,26.3-127,26.3c-18.2,0-36.5-1.7-54.9-5.4c-33.8-6.7-63.7-23.1-90.2-44.6
				c-8.1-6.6-15.2-14.2-21.7-22.2c-40.8,14.2-80.6,31.5-120.8,48.1c-24.9,10.3-50.4,20.2-76.2,28.6c0.7,0.6,1.4,1.1,2,1.7
				c28.8,23.9,57.3,43.4,92.9,55.8c20.5,7.2,41.6,10.1,62.8,10.1c41.9,0,84.2-11.4,123.6-24.1c25.8-8.3,51.6-16.9,78.4-21.7
				c5.4-0.5,10.9-0.7,16.3-0.7c3.6,0,7.1,0.1,10.7,0.3c7.1,1.5,14.1,3.5,21,6c18.8,9,36.5,20.2,54.9,30.1
				c15.5,8.4,31.7,15.6,48.2,21.8c16.6,6.2,33.6,8.6,51.2,10.6c6.6,0.8,13.3,1.1,19.9,1.1c52.9,0,104.4-23.1,150.6-46.6
				c22.8-11.6,45.2-24,68.6-34.5c47.7-18.6,98.4-27.3,149-34.3c51.5-6.7,103.3-12.6,153.6-25.8c28.4-7.4,55.6-17.8,82.4-29.8
				c26.8-12.1,50.2-28.1,73.3-46.3c25.9-20.4,45.5-49,55.7-80.4c6.7-20.5,6.3-42.4,1.9-63.3
				C1845.5,1451.9,1833.1,1431.6,1818.8,1418.2z"/>
			<path class="st4" d="M453.2,1679.9c-19.7-7.1-40.3-11.1-61-14.1c-26.3-3.3-52.8-6-78.7-11.3c-26.1-5.4-51.4-14.4-75.1-26.5
				c-47-23.8-83.7-67.2-92.9-119c-0.8,3.3-1.5,6.7-2.1,10.1c-4.7,27.2-4.8,49.5-0.3,76.6c3.3,19.7,11.4,39.1,21.2,56.3
				c44.2,77.5,133.6,115,219.8,115.4c0.6,0,1.2,0,1.8,0c50.3,0,99.4-10.8,146.9-26.3c-16.7-14-32.5-29.1-49.4-42.9
				C473.8,1691.3,463.8,1685.1,453.2,1679.9z"/>
			<path class="st5" d="M692.8,1615.9c-1.5-0.9-3-1.8-4.5-2.6c-4.8-1.5-9.6-2.7-14.6-3.7c-7.5-0.6-14.9-0.8-22.4-0.8
				c-13.6,0-27.1,0.7-40.7,1.2c-16,0.6-32.1,0.9-48.1,0.9c-12.5,0-25-0.2-37.5-0.6c-56.5-1.7-112.7-7.6-168.5-15.9
				c-24.4-3.7-48-7.1-70.8-16.8c-15.5-6.5-29-14-41.2-26.3c-18.2-18.3-27.3-41-29.2-66.4c-0.8-10,0.8-20.9,3.5-30.4
				c3.7-12.8,9.5-22.9,17.4-33.2c13.3-17.3,29.7-28.8,49.5-36.8c-24.5,4.3-48.3,12.5-68.6,26.1c-34.3,22.9-61.5,57.8-71.6,98.2
				c9.2,51.8,45.9,95.2,92.9,119c23.7,12,49.1,21.1,75.1,26.5c26,5.3,52.4,8.1,78.7,11.3c20.7,3.1,41.3,7.1,61,14.1
				c10.6,5.2,20.6,11.4,30.2,18.3c16.9,13.8,32.7,28.9,49.4,42.9c25.9-8.5,51.3-18.3,76.2-28.6c40.2-16.6,80-33.9,120.8-48.1
				c-10.2-12.5-19.1-26.2-28.5-39.4C698.6,1621.8,695.8,1618.8,692.8,1615.9z"/>
			<path class="st5" d="M1803.9,1464.6c0.2,16-5.3,33.8-13.9,47.1c-9.7,15.2-19.6,23.6-34.1,33.9c-14.1,10-31.6,15.7-47.4,22.1
				c-12.5,5-25.2,9.5-38.1,13.5c-25.3,7.9-51.2,13.8-77.3,18.4c-108.6,19.2-219,17.8-328.2,31.3c-43.6,6.4-86.5,16-127.9,30.7
				c99.4,18.9,198.8,39.4,300.1,39.4c2.6,0,5.2,0,7.8,0c66.9-0.7,136-9.8,199-33.1c33.5-12.4,66.5-27.3,96.3-47.2
				c16.6-11.1,34.1-23.1,47-38.6c7.5-9.1,15.4-18.4,20.6-29.1c8.3-17.4,12.9-33,13.8-52.4c1.2-27.1-8.8-52.1-25.4-72.3
				C1801.1,1439.5,1803.7,1451.8,1803.9,1464.6z"/>
			<path class="st4" d="M1684.9,1370.3c-11,0-21.9,0.4-32.6,0.5c-125.2,1.5-250.5,3-375.7,4.6c-125.7,1.5-251.4,3.1-377.1,4.6
				c-116.9,1.4-233.8,2.8-350.7,4.3c2.1,0.1,4.2,0.2,6.3,0.3c129.2-1.8,258.4-2.4,387.6-2.7c146.8-0.3,293.7-0.3,440.5-1.4
				c74.2-0.5,148.3-1.3,222.5-2.6c19-0.3,38.5-1.5,58-1.5c18.9,0,37.7,1.1,55.8,5.2c14.2,0.9,28.1,2.7,41.6,6.1
				c-0.7-0.4-1.4-0.9-2.1-1.3C1736.6,1372.6,1710.7,1370.3,1684.9,1370.3z"/>
			<path class="st5" d="M537.5,1384.4l-0.1,0c-52.2-2.3-104.4-4.6-156.6-6.8c-12.6-0.6-25.2-1.3-37.8-1.6c-1.6,0-3.3-0.1-4.9-0.1
				c-4.3,0-8.7,0.2-13,0.6c-11.2,1.1-23.1,2.1-33.8,6c-1.9,0.7-3.8,1.4-5.6,2.1c15.8-2.8,31.9-4,47.5-4c3,0,6,0,8.9,0.1
				c30.1,0.9,60.1,5.9,90.1,5.9c4.9,0,9.8-0.1,14.7-0.4c4.8-1,9.6-1.5,14.4-1.5c4.1,0,8.3,0.4,12.4,1.1c9.2-0.2,18.4-0.4,27.6-0.5
				c17.9-0.3,35.8-0.6,53.7-0.8c-2.1-0.1-4.2-0.2-6.3-0.3C545,1384.3,541.2,1384.4,537.5,1384.4z"/>
			<path class="st5" d="M1761,1387.6c-13.4-3.4-27.4-5.2-41.6-6.1c2,0.4,3.9,0.9,5.8,1.4c27.2,7.1,52.9,23.4,70.9,45.5
				C1788.9,1411.9,1776.9,1397.8,1761,1387.6z"/>
			<path class="st5" d="M904.2,1633.6c-24.1,0-48.1,1.2-72.1,3.9c-35.2,5.6-69.1,15.1-102.3,26.7c6.5,8.1,13.6,15.6,21.7,22.2
				c26.4,21.5,56.4,37.9,90.2,44.6c18.3,3.7,36.7,5.4,54.9,5.4c43.3,0,86-9.8,127-26.3c31.3-12.6,61.7-27.1,92.6-40.6
				c6.9-2.8,13.9-5.4,20.9-7.9c-39-7.4-78-14.6-117.2-20.1C981.5,1636.7,942.9,1633.6,904.2,1633.6z"/>
			<path class="st5" d="M1605.7,1377.8c-74.2,1.3-148.3,2.1-222.5,2.6c-146.8,1.1-293.7,1.1-440.5,1.4
				c-129.2,0.3-258.4,0.9-387.6,2.7c10.6,0.5,21.1,1,31.7,1.5c4.5,0.2,8.8,0.8,13,1.6c115.1-0.7,230.3-1.3,345.4-2
				c116.1-0.7,232.2-1.4,348.3-2c115.6-0.7,231.2-1.3,346.8-2c16.9-0.1,34.5-0.8,52.1-0.8c9.1,0,18.2,0.2,27.2,0.7
				c-18.2-4.1-37-5.2-55.8-5.2C1644.2,1376.3,1624.6,1377.5,1605.7,1377.8z"/>
			<path class="st6" d="M1725.3,1382.9c-1.9-0.5-3.9-1-5.8-1.4c-9-0.6-18.1-0.7-27.2-0.7c-17.6,0-35.2,0.7-52.1,0.8
				c-115.6,0.7-231.2,1.3-346.8,2c-116.1,0.7-232.2,1.4-348.3,2c-115.1,0.7-230.3,1.3-345.4,2c-4.2-0.9-8.5-1.4-13-1.6
				c-10.6-0.5-21.1-1-31.7-1.5c-17.9,0.3-35.8,0.5-53.7,0.8c-9.2,0.2-18.4,0.3-27.6,0.5c-4.1-0.7-8.3-1.1-12.4-1.1
				c-4.8,0-9.6,0.5-14.4,1.5c-4.9,0.3-9.8,0.4-14.7,0.4c-30.1,0-60-5.1-90.1-5.9c-3-0.1-5.9-0.1-8.9-0.1c-15.6,0-31.7,1.2-47.5,4
				c-19.9,8-36.2,19.5-49.5,36.8c-7.9,10.2-13.7,20.4-17.4,33.2c-2.7,9.5-4.3,20.4-3.5,30.4c1.9,25.4,11,48.1,29.2,66.4
				c12.2,12.2,25.7,19.7,41.2,26.3c22.8,9.6,46.4,13.1,70.8,16.8c55.9,8.4,112,14.3,168.5,15.9c12.5,0.4,25,0.6,37.5,0.6
				c16,0,32.1-0.3,48.1-0.9c13.6-0.5,27.1-1.2,40.7-1.2c7.5,0,15,0.2,22.4,0.8c4.9,1,9.8,2.2,14.6,3.7c1.5,0.8,3,1.7,4.5,2.6
				c3,2.8,5.8,5.9,8.5,9c9.4,13.1,18.3,26.8,28.5,39.4c33.3-11.6,67.1-21.2,102.3-26.7c24-2.7,48.1-3.9,72.1-3.9
				c38.6,0,77.3,3.1,115.7,7.9c39.1,5.6,78.2,12.7,117.2,20.1c41.4-14.8,84.3-24.4,127.9-30.7c109.1-13.5,219.6-12.1,328.2-31.3
				c26.1-4.6,52-10.5,77.3-18.4c12.9-4,25.6-8.5,38.1-13.5c15.8-6.4,33.3-12.1,47.4-22.1c14.6-10.3,24.4-18.7,34.1-33.9
				c8.5-13.3,14.1-31.1,13.9-47.1c-0.2-12.9-2.9-25.1-7.8-36.2C1778.2,1406.4,1752.5,1390,1725.3,1382.9z"/>
		</g>
		<g>
			<path class="st0" d="M984.2,410.9H755c-26.4,0-47.8,21.4-47.9,47.8l-0.7,514.8c0,5.8,4.7,10.5,10.5,10.6c0,0,0,0,0,0
				c5.8,0,10.5-4.7,10.5-10.5l0.7-514.8c0-14.7,12-26.7,26.8-26.7h229.2c7.2,0,13.9,2.8,19,7.9c5.1,5.1,7.8,11.8,7.8,19l-0.7,236
				c0,5.8,4.7,10.6,10.5,10.6c0,0,0,0,0,0c5.8,0,10.5-4.7,10.5-10.5l0.7-236c0-12.8-4.9-24.9-14-33.9
				C1009,415.9,997,410.9,984.2,410.9z"/>
			<g>
				<path class="st7" d="M1092.5,897.4c-22-12.6-35.6-35.9-35.6-61.2V724.1h-76.5v112.1c0,25.3-13.6,48.6-35.6,61.2
					c-44.9,25.7-75.1,74-75.1,129.4c0,82.2,67.5,149.3,149.6,148.9c81.9-0.4,148.2-66.9,148.2-148.9
					C1167.5,971.4,1137.3,923.1,1092.5,897.4z"/>
				<path class="st7" d="M1058.4,700.8h-79.6c-6.1,0-11.1,5-11.1,11.1v1.2c0,6.1,5,11.1,11.1,11.1h79.6c6.1,0,11.1-5,11.1-11.1v-1.2
					C1069.5,705.8,1064.5,700.8,1058.4,700.8z"/>
				<linearGradient id="SVGID_1_" gradientUnits="userSpaceOnUse" x1="1018.5835" y1="962.0564" x2="1018.5835" y2="1127.8682">
					<stop  offset="0" style="stop-color:#EA6C70"/>
					<stop  offset="1" style="stop-color:#DD5761"/>
				</linearGradient>
				<path class="st8" d="M1143.8,988.8c-4.4-10.9-15.6-14.6-26.5-11.9c-4.7,1.1-9.4,4.2-14.3,4.3c-4.2,0.1-6.9-4-9.3-6.9
					c-13.6-16.4-27.5-33.8-48.9-39.9c-10.2-2.9-21.2-2.8-31,1.4c-9.7,4.1-16.6,11.8-22.8,20.1c-5.5,7.4-10.3,15.6-17.6,21.5
					c-7.7,6.2-15.2,6.3-23.6,1.6c-11-6.1-21.6-14.3-35.1-12.2c-11.4,1.8-19.2,10.4-20.8,21.5h0c-3.8,12.4-5.9,25.4-5.9,38.7
					c0,34.8,13.7,67.5,38.4,92.3c24.8,24.8,57.6,38.4,92.3,38.4l0.6,0c34.8-0.2,67.5-13.8,92-38.5c24.6-24.7,38.1-57.4,38.1-92.2
					c0-12.4-1.8-24.5-5.1-36.1C1144.1,990.1,1144,989.4,1143.8,988.8z"/>
				
					<ellipse transform="matrix(0.7071 -0.7071 0.7071 0.7071 -438.2274 944.9965)" class="st9" cx="921.6" cy="1001.5" rx="8.5" ry="8.5"/>
				
					<ellipse transform="matrix(0.3827 -0.9239 0.9239 0.3827 -359.4539 1573.3947)" class="st9" cx="997.6" cy="1055.7" rx="8.5" ry="8.5"/>
				<circle class="st9" cx="1061.4" cy="1003.8" r="8.5"/>
				<circle class="st9" cx="1025.1" cy="965.1" r="8.5"/>
				<linearGradient id="SVGID_2_" gradientUnits="userSpaceOnUse" x1="978.1599" y1="929.2971" x2="995.1614" y2="929.2971">
					<stop  offset="0" style="stop-color:#EA6C70"/>
					<stop  offset="1" style="stop-color:#DD5761"/>
				</linearGradient>
				<circle class="st10" cx="986.7" cy="929.3" r="8.5"/>
				<linearGradient id="SVGID_3_" gradientUnits="userSpaceOnUse" x1="971.4808" y1="914.0491" x2="981.8031" y2="914.0491">
					<stop  offset="0" style="stop-color:#EA6C70"/>
					<stop  offset="1" style="stop-color:#DD5761"/>
				</linearGradient>
				<circle class="st11" cx="976.6" cy="914" r="5.2"/>
				<linearGradient id="SVGID_4_" gradientUnits="userSpaceOnUse" x1="1074.5671" y1="935.0837" x2="1086.1405" y2="935.0837">
					<stop  offset="0" style="stop-color:#EA6C70"/>
					<stop  offset="1" style="stop-color:#DD5761"/>
				</linearGradient>
				<path class="st12" d="M1080.4,929.3c-3.2,0-5.8,2.6-5.8,5.8s2.6,5.8,5.8,5.8c3.2,0,5.8-2.6,5.8-5.8S1083.5,929.3,1080.4,929.3z"
					/>
				<linearGradient id="SVGID_5_" gradientUnits="userSpaceOnUse" x1="944.6122" y1="949.9185" x2="971.4808" y2="949.9185">
					<stop  offset="0" style="stop-color:#EA6C70"/>
					<stop  offset="1" style="stop-color:#DD5761"/>
				</linearGradient>
				<circle class="st13" cx="958" cy="949.9" r="13.4"/>
				<circle class="st9" cx="1114.2" cy="1022.9" r="8.5"/>
				<circle class="st9" cx="937.2" cy="1057.5" r="19"/>
				
					<ellipse transform="matrix(0.9871 -0.1602 0.1602 0.9871 -164.3259 178.5207)" class="st9" cx="1025.1" cy="1108.5" rx="19" ry="19"/>
				<circle class="st9" cx="1080.4" cy="1041.9" r="19"/>
			</g>
			<g>
				<path class="st14" d="M1097.9,1324.4H943.8c-4,0-7.2,3.2-7.2,7.2v29.2c0,4,3.2,7.2,7.2,7.2h154.1c4,0,7.2-3.2,7.2-7.2v-29.2
					C1105.1,1327.6,1101.8,1324.4,1097.9,1324.4z"/>
				<linearGradient id="SVGID_6_" gradientUnits="userSpaceOnUse" x1="1025.7037" y1="1251.5908" x2="1020.4717" y2="1294.4568">
					<stop  offset="0" style="stop-color:#EA6C70"/>
					<stop  offset="1" style="stop-color:#F44E5B"/>
				</linearGradient>
				<path class="st15" d="M1010.7,1217.4c0,0,10.6,14.6-15.3,52.8s15.3,54.1,15.3,54.1h26.4
					C1088.8,1277.7,1010.7,1217.4,1010.7,1217.4z"/>
			</g>
			<g>
				<path class="st14" d="M489.4,1324.3H335.3c-4,0-7.2,3.2-7.2,7.2v29.2c0,4,3.2,7.2,7.2,7.2h154.1c4,0,7.2-3.2,7.2-7.2v-29.2
					C496.6,1327.6,493.4,1324.3,489.4,1324.3z"/>
				<linearGradient id="SVGID_7_" gradientUnits="userSpaceOnUse" x1="417.2481" y1="1251.552" x2="412.0161" y2="1294.4178">
					<stop  offset="0" style="stop-color:#EA6C70"/>
					<stop  offset="1" style="stop-color:#F44E5B"/>
				</linearGradient>
				<path class="st16" d="M402.3,1217.4c0,0,10.6,14.6-15.3,52.8c-26,38.3,15.3,54.1,15.3,54.1h26.4
					C480.3,1277.6,402.3,1217.4,402.3,1217.4z"/>
			</g>
			<path class="st17" d="M1684.2,1165.7h-366.6c-19.8,0-36,16.1-36,36v165.7c0,2.9,2.4,5.3,5.3,5.3c2.9,0,5.3-2.4,5.3-5.3v-165.7
				c0-14,11.4-25.4,25.4-25.4h116.9v196.9c0,2.9,2.4,5.3,5.3,5.3s5.3-2.4,5.3-5.3v-196.9h118.1v196.9c0,2.9,2.4,5.3,5.3,5.3
				s5.3-2.4,5.3-5.3v-196.9h110.6c14,0,25.4,11.4,25.4,25.4v165.7c0,2.9,2.4,5.3,5.3,5.3c2.9,0,5.3-2.4,5.3-5.3v-165.7
				C1720.2,1181.8,1704,1165.7,1684.2,1165.7z"/>
			<g>
				<g>
					<path class="st7" d="M1345.7,1315.8c0,15.2,12.3,27.5,27.5,27.5h3c15.2,0,27.5-12.3,27.5-27.5v-256.2h-58.1V1315.8z"/>
					<path class="st7" d="M1401.3,1038h-53.1c-5.7,0-10.2,4.6-10.2,10.2v1.1c0,5.7,4.6,10.2,10.2,10.2h53.1
						c5.7,0,10.2-4.6,10.2-10.2v-1.1C1411.6,1042.6,1407,1038,1401.3,1038z"/>
					<linearGradient id="SVGID_8_" gradientUnits="userSpaceOnUse" x1="1374.4296" y1="1187.4314" x2="1375.1448" y2="1307.3793">
						<stop  offset="0" style="stop-color:#FFC76A"/>
						<stop  offset="1" style="stop-color:#F9B148"/>
					</linearGradient>
					<path class="st18" d="M1389.5,1171.9c-5-0.9-8.7,4.5-13.5,3c-1.9-0.6-3.6-2.2-5.5-2.9c-2.2-0.9-4.4-1.2-6.7-0.8
						c-4.1,0.7-7.6,3.3-9.4,7c-0.2,0.4-0.3,0.8-0.4,1.1h-0.1v0.6c0,0.2,0,0.4,0,0.6v133.7c0,11.4,9.3,20.7,20.7,20.7
						c11.4,0,20.7-9.3,20.7-20.7v-135h-0.1C1395.6,1175.7,1393.3,1172.5,1389.5,1171.9z"/>
					<path class="st19" d="M1365.4,1224.5c-2.4,0-4.4,2-4.4,4.4c0,2.4,2,4.4,4.4,4.4c2.4,0,4.4-2,4.4-4.4
						C1369.7,1226.5,1367.8,1224.5,1365.4,1224.5z"/>
					<path class="st19" d="M1383.4,1188.2c-2.4,0-4.4,2-4.4,4.4s2,4.4,4.4,4.4s4.4-2,4.4-4.4S1385.8,1188.2,1383.4,1188.2z"/>
					<path class="st19" d="M1367.4,1147.6c-2.4,0-4.4,2-4.4,4.4c0,2.4,2,4.4,4.4,4.4s4.4-2,4.4-4.4
						C1371.7,1149.6,1369.8,1147.6,1367.4,1147.6z"/>
					<path class="st19" d="M1387.5,1138c-2.4,0-4.4,2-4.4,4.4c0,2.4,2,4.4,4.4,4.4c2.4,0,4.4-2,4.4-4.4
						C1391.9,1139.9,1389.9,1138,1387.5,1138z"/>
					<path class="st19" d="M1383.8,1122.7c-2.1,0-3.7,1.7-3.7,3.7s1.7,3.7,3.7,3.7c2.1,0,3.7-1.7,3.7-3.7
						S1385.9,1122.7,1383.8,1122.7z"/>
					<path class="st19" d="M1384.4,1210.8c-2.4,0-4.4,2-4.4,4.4c0,2.4,2,4.4,4.4,4.4s4.4-2,4.4-4.4
						C1388.8,1212.8,1386.8,1210.8,1384.4,1210.8z"/>
					<path class="st19" d="M1368.7,1245.3c-4.2,0-7.7,3.4-7.7,7.7s3.4,7.7,7.7,7.7s7.7-3.4,7.7-7.7S1372.9,1245.3,1368.7,1245.3z"/>
					<path class="st19" d="M1381.5,1224.5c-4.2,0-7.7,3.4-7.7,7.7c0,4.2,3.4,7.7,7.7,7.7s7.7-3.4,7.7-7.7
						C1389.2,1227.9,1385.8,1224.5,1381.5,1224.5z"/>
				</g>
				<g>
					<path class="st7" d="M1476.1,1315.8c0,15.2,12.3,27.5,27.5,27.5h3c15.2,0,27.5-12.3,27.5-27.5v-256.2h-58.1V1315.8z"/>
					<path class="st7" d="M1531.7,1038h-53.1c-5.7,0-10.2,4.6-10.2,10.2v1.1c0,5.7,4.6,10.2,10.2,10.2h53.1
						c5.7,0,10.2-4.6,10.2-10.2v-1.1C1541.9,1042.6,1537.3,1038,1531.7,1038z"/>
					<linearGradient id="SVGID_9_" gradientUnits="userSpaceOnUse" x1="1504.8511" y1="1202.4202" x2="1505.4773" y2="1307.4435">
						<stop  offset="0" style="stop-color:#F8A792"/>
						<stop  offset="1" style="stop-color:#F78972"/>
					</linearGradient>
					<path class="st20" d="M1519.8,1171.9c-5-0.9-8.7,4.5-13.5,3c-1.9-0.6-3.6-2.2-5.5-2.9c-2.2-0.9-4.4-1.2-6.7-0.8
						c-4.1,0.7-7.6,3.3-9.4,7c-0.2,0.4-0.3,0.8-0.4,1.1h-0.1v0.6c0,0.2,0,0.4,0,0.6v133.7c0,11.4,9.3,20.7,20.7,20.7
						c11.4,0,20.7-9.3,20.7-20.7v-135h-0.1C1525.9,1175.7,1523.6,1172.5,1519.8,1171.9z"/>
					<path class="st21" d="M1495.7,1224.5c-2.4,0-4.4,2-4.4,4.4c0,2.4,2,4.4,4.4,4.4c2.4,0,4.4-2,4.4-4.4
						C1500,1226.5,1498.1,1224.5,1495.7,1224.5z"/>
					<path class="st21" d="M1514.1,1232.2c-2.4,0-4.4,2-4.4,4.4s2,4.4,4.4,4.4c2.4,0,4.4-2,4.4-4.4S1516.5,1232.2,1514.1,1232.2z"/>
					<path class="st21" d="M1502.1,1291.1c-2.4,0-4.4,2-4.4,4.4s2,4.4,4.4,4.4c2.4,0,4.4-2,4.4-4.4S1504.5,1291.1,1502.1,1291.1z"/>
					<path class="st21" d="M1497.7,1147.6c-2.4,0-4.4,2-4.4,4.4c0,2.4,2,4.4,4.4,4.4s4.4-2,4.4-4.4
						C1502.1,1149.6,1500.1,1147.6,1497.7,1147.6z"/>
					<path class="st21" d="M1511,1152c-3.8,0-6.8,3-6.8,6.8s3,6.8,6.8,6.8s6.8-3,6.8-6.8S1514.8,1152,1511,1152z"/>
					<path class="st21" d="M1517.9,1138c-2.4,0-4.4,2-4.4,4.4c0,2.4,2,4.4,4.4,4.4c2.4,0,4.4-2,4.4-4.4
						C1522.2,1139.9,1520.3,1138,1517.9,1138z"/>
					<path class="st21" d="M1493.3,1132.7c-2.1,0-3.7,1.7-3.7,3.7s1.7,3.7,3.7,3.7c2.1,0,3.7-1.7,3.7-3.7
						S1495.4,1132.7,1493.3,1132.7z"/>
					<path class="st21" d="M1495.7,1267.2c-2.4,0-4.4,2-4.4,4.4s2,4.4,4.4,4.4c2.4,0,4.4-2,4.4-4.4S1498.1,1267.2,1495.7,1267.2z"/>
					<path class="st21" d="M1499,1245.3c-4.2,0-7.7,3.4-7.7,7.7s3.4,7.7,7.7,7.7s7.7-3.4,7.7-7.7S1503.2,1245.3,1499,1245.3z"/>
					<path class="st21" d="M1513.5,1268.2c-4.2,0-7.7,3.4-7.7,7.7s3.4,7.7,7.7,7.7c4.2,0,7.7-3.4,7.7-7.7
						S1517.7,1268.2,1513.5,1268.2z"/>
				</g>
				<g>
					<path class="st7" d="M1598,1315.8c0,15.2,12.3,27.5,27.5,27.5h3c15.2,0,27.5-12.3,27.5-27.5v-256.2H1598V1315.8z"/>
					<path class="st7" d="M1653.6,1038h-53.1c-5.7,0-10.2,4.6-10.2,10.2v1.1c0,5.7,4.6,10.2,10.2,10.2h53.1
						c5.7,0,10.2-4.6,10.2-10.2v-1.1C1663.8,1042.6,1659.2,1038,1653.6,1038z"/>
					<linearGradient id="SVGID_10_" gradientUnits="userSpaceOnUse" x1="1626.9601" y1="1233.8973" x2="1627.3949" y2="1306.799">
						<stop  offset="0" style="stop-color:#4E537B"/>
						<stop  offset="1" style="stop-color:#39437A"/>
					</linearGradient>
					<path class="st22" d="M1641.8,1171.9c-5-0.9-8.7,4.5-13.5,3c-1.9-0.6-3.6-2.2-5.5-2.9c-2.2-0.9-4.4-1.2-6.7-0.8
						c-4.1,0.7-7.6,3.3-9.4,7c-0.2,0.4-0.3,0.8-0.4,1.1h-0.1v0.6c0,0.2,0,0.4,0,0.6v133.7c0,11.4,9.3,20.7,20.7,20.7
						s20.7-9.3,20.7-20.7v-135h-0.1C1647.9,1175.7,1645.6,1172.5,1641.8,1171.9z"/>
					<path class="st23" d="M1617.6,1224.5c-2.4,0-4.4,2-4.4,4.4c0,2.4,2,4.4,4.4,4.4s4.4-2,4.4-4.4
						C1622,1226.5,1620,1224.5,1617.6,1224.5z"/>
					<path class="st23" d="M1622,1201.5c-2.4,0-4.4,2-4.4,4.4c0,2.4,2,4.4,4.4,4.4c2.4,0,4.4-2,4.4-4.4
						C1626.3,1203.4,1624.4,1201.5,1622,1201.5z"/>
					<path class="st23" d="M1638.3,1225.5c-2.4,0-4.4,2-4.4,4.4c0,2.4,2,4.4,4.4,4.4c2.4,0,4.4-2,4.4-4.4
						C1642.6,1227.5,1640.7,1225.5,1638.3,1225.5z"/>
					<path class="st23" d="M1619.6,1147.6c-2.4,0-4.4,2-4.4,4.4c0,2.4,2,4.4,4.4,4.4c2.4,0,4.4-2,4.4-4.4
						C1624,1149.6,1622,1147.6,1619.6,1147.6z"/>
					<path class="st23" d="M1635.4,1114c-3.8,0-6.8,3-6.8,6.8c0,3.8,3,6.8,6.8,6.8s6.8-3,6.8-6.8
						C1642.2,1117.1,1639.2,1114,1635.4,1114z"/>
					<path class="st23" d="M1639.8,1153.5c-2.4,0-4.4,2-4.4,4.4s2,4.4,4.4,4.4s4.4-2,4.4-4.4S1642.2,1153.5,1639.8,1153.5z"/>
					<circle class="st23" cx="1636.3" cy="1138" r="3.7"/>
					<path class="st23" d="M1617.6,1267.2c-2.4,0-4.4,2-4.4,4.4s2,4.4,4.4,4.4s4.4-2,4.4-4.4S1620,1267.2,1617.6,1267.2z"/>
					<path class="st23" d="M1628.6,1237.7c-4.2,0-7.7,3.4-7.7,7.7s3.4,7.7,7.7,7.7s7.7-3.4,7.7-7.7S1632.8,1237.7,1628.6,1237.7z"/>
					<path class="st23" d="M1636.3,1257.4c-4.2,0-7.7,3.4-7.7,7.7s3.4,7.7,7.7,7.7s7.7-3.4,7.7-7.7S1640.5,1257.4,1636.3,1257.4z"/>
				</g>
			</g>
			<rect x="1215.2" y="686.4" class="st24" width="12.6" height="684.6"/>
			<rect x="1079.8" y="775.7" class="st24" width="148.1" height="14.2"/>
			<path class="st24" d="M1064.1,755.2h-91c-8.7,0-15.7,7-15.7,15.7v18.5c0,8.7,7,15.7,15.7,15.7h91c8.7,0,15.7-7,15.7-15.7v-18.5
				C1079.8,762.3,1072.7,755.2,1064.1,755.2z"/>
			<circle class="st24" cx="1221.5" cy="676.4" r="28.6"/>
			
				<ellipse transform="matrix(0.982 -0.1891 0.1891 0.982 -105.8637 243.2066)" class="st25" cx="1221.5" cy="676.4" rx="18.5" ry="18.5"/>
			<g>
				<path class="st7" d="M755.7,1141.1c-10.9-25.8-16.5-53.4-16.5-81.4v-57.3h-56.9v57.3c0,28-5.6,55.6-16.5,81.4l-81.3,192.5
					c-6.6,15.7,4.9,33,21.9,33h104.4h104.4c17,0,28.5-17.3,21.9-33L755.7,1141.1z"/>
				<path class="st7" d="M740.1,975.2h-58.2c-7.1,0-12.9,5.8-12.9,12.9v1.4c0,7.1,5.8,12.9,12.9,12.9h58.2c7.1,0,12.9-5.8,12.9-12.9
					v-1.4C753,981,747.2,975.2,740.1,975.2z"/>
				<linearGradient id="SVGID_11_" gradientUnits="userSpaceOnUse" x1="710.8012" y1="1206.6021" x2="710.8012" y2="1320.5325">
					<stop  offset="0" style="stop-color:#FFC76A"/>
					<stop  offset="1" style="stop-color:#F9B148"/>
				</linearGradient>
				<path class="st26" d="M762.9,1212.2c-5.1-19.5-27-37.2-47.3-28.5c-4.9,2.1-8.3,5.8-11.4,10.1c-2.4,3.4-4.5,8.3-9.1,8.8
					c-5.9,0.6-12-3-18-3.3c-5.6-0.3-11.1,1.4-15,5.5c-1.2,1.2-1.8,2.6-1.9,4L604,1341.9c-0.1,0.3-0.6,1.3,0.2,2.5
					c0.8,1.2,1.9,1.2,2.2,1.2h208.7c0.4,0,1.4,0,2.2-1.2c0.8-1.2,0.4-2.2,0.2-2.5L762.9,1212.2z"/>
				
					<ellipse transform="matrix(0.9871 -0.1602 0.1602 0.9871 -188.6214 125.5121)" class="st27" cx="684.2" cy="1232.7" rx="6.4" ry="6.4"/>
				
					<ellipse transform="matrix(0.3827 -0.9239 0.9239 0.3827 -712.396 1487.0488)" class="st27" cx="756.6" cy="1276.6" rx="6.4" ry="6.4"/>
				<circle class="st27" cx="671.4" cy="1285.4" r="6.4"/>
				<circle class="st27" cx="703.1" cy="1251.6" r="13.9"/>
				
					<ellipse transform="matrix(0.3827 -0.9239 0.9239 0.3827 -754.8337 1467.6302)" class="st27" cx="720.8" cy="1298.7" rx="10" ry="10"/>
				
					<ellipse transform="matrix(0.9951 -9.853683e-02 9.853683e-02 0.9951 -125.7963 70.2724)" class="st27" cx="648.5" cy="1308.7" rx="11.4" ry="11.4"/>
				<circle class="st27" cx="725.4" cy="1208.4" r="6"/>
				<circle class="st27" cx="690.6" cy="1171.6" r="6"/>
				<circle class="st27" cx="706.8" cy="1157.3" r="4.8"/>
				<path class="st27" d="M698.6,1132.6c-3.8,0-6.8,3.1-6.8,6.8s3.1,6.8,6.8,6.8s6.8-3.1,6.8-6.8S702.4,1132.6,698.6,1132.6z"/>
				<path class="st27" d="M733,1157.3c-3.8,0-6.8,3.1-6.8,6.8c0,3.8,3.1,6.8,6.8,6.8s6.8-3.1,6.8-6.8
					C739.9,1160.4,736.8,1157.3,733,1157.3z"/>
			</g>
			<g>
				<path class="st17" d="M513.8,1082.3H311.4c-16.4,0-29.7,13.7-29.7,30.6v258.5c0,2.6,2.1,4.7,4.7,4.7c2.6,0,4.7-2.1,4.7-4.7V1113
					c0-11.7,9.1-21.1,20.2-21.1h202.4c11.1,0,20.2,9.5,20.2,21.1v254.9c0,2.6,2.1,4.7,4.7,4.7c2.6,0,4.7-2.1,4.7-4.7V1113
					C543.5,1096.1,530.1,1082.3,513.8,1082.3z"/>
				<g>
					<path class="st7" d="M323.3,1140.8c0,21.5,17.4,38.8,38.8,38.8h101c21.5,0,38.8-17.4,38.8-38.8V972.5H323.3V1140.8z"/>
					<path class="st7" d="M502.6,956.4h-180c-4.2,0-7.6,3.4-7.6,7.6v0.8c0,4.2,3.4,7.6,7.6,7.6h180c4.2,0,7.6-3.4,7.6-7.6V964
						C510.2,959.8,506.8,956.4,502.6,956.4z"/>
					<linearGradient id="SVGID_12_" gradientUnits="userSpaceOnUse" x1="412.6703" y1="1053.8876" x2="412.6703" y2="1114.012">
						<stop  offset="0" style="stop-color:#F8A792"/>
						<stop  offset="1" style="stop-color:#F78972"/>
					</linearGradient>
					<path class="st28" d="M475.8,1027.6c-4.4-3.9-10.6-5.1-16.4-4.9c-2.1,0.1-4.5,1-6.5,0.8c-0.3,0-0.5,0-0.6,0
						c0-0.1-0.1-0.2-0.3-0.4c-2.6-2.7-4.1-6.3-7-8.9c-6.1-5.4-14.4-8.5-22.7-7.9c-8.5,0.7-16.4,4.5-21.9,11.1
						c-2.7,3.2-4.6,7.1-7.6,10c-2.5,2.4-3.8,2.7-6.9,1.1c-7.7-3.8-14-8.2-23.1-7.1c-8.6,1-15.8,6.8-17.9,15.3
						c-0.1,0.5-0.2,1-0.2,1.5h-0.3v100.6c0,11,8.9,19.9,19.9,19.9H461c11,0,19.9-8.9,19.9-19.9V1043
						C481.5,1037.3,480.4,1031.7,475.8,1027.6z"/>
					<path class="st29" d="M364.5,1042.1c-2.9,0-5.2,2.3-5.2,5.2c0,2.9,2.3,5.2,5.2,5.2s5.2-2.3,5.2-5.2
						C369.7,1044.4,367.4,1042.1,364.5,1042.1z"/>
					<circle class="st29" cx="382.8" cy="1008.4" r="5.2"/>
					<circle class="st29" cx="364.5" cy="996.1" r="5.2"/>
					<circle class="st29" cx="437.1" cy="989.3" r="5.2"/>
					<path class="st29" d="M447.1,1057.7c-2.9,0-5.2,2.3-5.2,5.2c0,2.9,2.3,5.2,5.2,5.2s5.2-2.3,5.2-5.2
						C452.3,1060,450,1057.7,447.1,1057.7z"/>
					<circle class="st29" cx="447.1" cy="1042.5" r="10"/>
					
						<ellipse transform="matrix(0.3827 -0.9239 0.9239 0.3827 -642.811 1042.9645)" class="st29" cx="459" cy="1002.5" rx="10" ry="10"/>
					<circle class="st29" cx="372.8" cy="1066.1" r="10"/>
					
						<ellipse transform="matrix(0.9975 -7.088867e-02 7.088867e-02 0.9975 -78.4627 31.5665)" class="st29" cx="405.5" cy="1121.2" rx="10" ry="10"/>
					<path class="st29" d="M382.8,1104.6c-2.9,0-5.2,2.3-5.2,5.2s2.3,5.2,5.2,5.2s5.2-2.3,5.2-5.2S385.7,1104.6,382.8,1104.6z"/>
					<path class="st29" d="M447.1,1087.1c-2.9,0-5.2,2.3-5.2,5.2s2.3,5.2,5.2,5.2s5.2-2.3,5.2-5.2S450,1087.1,447.1,1087.1z"/>
					<path class="st29" d="M410.7,1097.5c-2.9,0-5.2,2.3-5.2,5.2c0,2.9,2.3,5.2,5.2,5.2s5.2-2.3,5.2-5.2
						C415.9,1099.8,413.6,1097.5,410.7,1097.5z"/>
				</g>
				<path class="st17" d="M329.5,1072.3H317c-2.7,0-4.8,2.2-4.8,4.8v20.7c0,2.7,2.2,4.8,4.8,4.8h12.5c2.7,0,4.8-2.2,4.8-4.8v-20.7
					C334.3,1074.5,332.2,1072.3,329.5,1072.3z"/>
				<path class="st17" d="M508.1,1072.3h-12.5c-2.7,0-4.8,2.2-4.8,4.8v20.7c0,2.7,2.2,4.8,4.8,4.8h12.5c2.7,0,4.8-2.2,4.8-4.8v-20.7
					C513,1074.5,510.8,1072.3,508.1,1072.3z"/>
			</g>
			<path class="st17" d="M1739.9,1368H270.3c-6.1,0-11,4.9-11,11v1.2c0,6.1,4.9,11,11,11h1469.7c6.1,0,11-4.9,11-11v-1.2
				C1750.9,1372.9,1746,1368,1739.9,1368z"/>
			<path class="st0" d="M719,576.5h-2.6c-13.3,0-24,10.8-24,24v223.9c0,13.3,10.8,24,24,24h2.6c13.3,0,24-10.8,24-24V600.5
				C743,587.3,732.3,576.5,719,576.5z"/>
			<path class="st30" d="M724.8,798.6V601.4c0-3.9-3.2-7.1-7.1-7.1s-7.1,3.2-7.1,7.1v197.2c-5.7,2.7-9.7,8.5-9.7,15.3
				c0,9.3,7.6,16.9,16.9,16.9c9.3,0,16.9-7.6,16.9-16.9C734.6,807.1,730.6,801.3,724.8,798.6z"/>
			<circle class="st31" cx="1366.8" cy="1003" r="7"/>
			<path class="st32" d="M1522.2,977.1c-3.9,0-7,3.1-7,7c0,3.9,3.1,7,7,7s7-3.1,7-7C1529.2,980.2,1526.1,977.1,1522.2,977.1z"/>
			<path class="st32" d="M1495.7,964.1c-3.9,0-7,3.1-7,7c0,3.9,3.1,7,7,7s7-3.1,7-7C1502.7,967.2,1499.6,964.1,1495.7,964.1z"/>
			<path class="st32" d="M1521.2,951.1c-3.9,0-7,3.1-7,7s3.1,7,7,7c3.9,0,7-3.1,7-7S1525.1,951.1,1521.2,951.1z"/>
			
				<ellipse transform="matrix(0.5257 -0.8507 0.8507 0.5257 -167.9443 1641.0253)" class="st31" cx="1387.7" cy="971.1" rx="13" ry="13"/>
			
				<ellipse transform="matrix(0.9239 -0.3827 0.3827 0.9239 -272.3205 650.923)" class="st32" cx="1500" cy="1010" rx="13" ry="13"/>
			<path class="st33" d="M1644.1,1007c-3.9,0-7,3.1-7,7s3.1,7,7,7c3.9,0,7-3.1,7-7S1648,1007,1644.1,1007z"/>
			<path class="st33" d="M1606.3,1000c-3.9,0-7,3.1-7,7s3.1,7,7,7c3.9,0,7-3.1,7-7S1610.2,1000,1606.3,1000z"/>
			<path class="st33" d="M1606.3,970c-3.9,0-7,3.1-7,7c0,3.9,3.1,7,7,7c3.9,0,7-3.1,7-7C1613.3,973.2,1610.2,970,1606.3,970z"/>
			<circle class="st33" cx="1632.2" cy="991.1" r="13"/>
			
				<ellipse transform="matrix(0.982 -0.1891 0.1891 0.982 -157.5559 273.1624)" class="st31" cx="1352.7" cy="962.2" rx="8.9" ry="8.9"/>
		</g>
		<g>
			<path class="st17" d="M1436,1426.2H717.2c-4.8,0-8.7,3.9-8.7,8.7s3.9,8.7,8.7,8.7H1436c4.8,0,8.7-3.9,8.7-8.7
				S1440.8,1426.2,1436,1426.2z"/>
			<path class="st17" d="M664.4,1426.2h-90.2c-4.8,0-8.7,3.9-8.7,8.7s3.9,8.7,8.7,8.7h90.2c4.8,0,8.7-3.9,8.7-8.7
				S669.2,1426.2,664.4,1426.2z"/>
		</g>
		<circle class="st25" cx="1078.4" cy="664.8" r="17"/>
		<circle class="st25" cx="971.5" cy="664.8" r="17"/>
		
			<ellipse transform="matrix(0.8507 -0.5257 0.5257 0.8507 -153.7353 680.6285)" class="st25" cx="1121.1" cy="610.9" rx="23.9" ry="23.9"/>
		<circle class="st25" cx="1073.3" cy="564.6" r="11.9"/>
		<circle class="st25" cx="976.6" cy="615.9" r="11.9"/>
		<circle class="st25" cx="1061.4" cy="627.8" r="11.9"/>
		<circle class="st32" cx="390.9" cy="911" r="18.1"/>
		
			<ellipse transform="matrix(0.9871 -0.1602 0.1602 0.9871 -132.2816 78.6183)" class="st32" cx="421.5" cy="859.8" rx="11.4" ry="11.4"/>
		
			<ellipse transform="matrix(0.7071 -0.7071 0.7071 0.7071 -499.6495 585.6175)" class="st32" cx="457.1" cy="895.9" rx="11.4" ry="11.4"/>
		<circle class="st32" cx="454.2" cy="851.3" r="8.5"/>
		<circle class="st32" cx="369.7" cy="871.2" r="8.5"/>
	</g>
</g>
</svg>
