<?xml version="1.0" encoding="utf-8"?>
<!-- Generator: Adobe Illustrator 16.0.0, SVG Export Plug-In . SVG Version: 6.00 Build 0)  -->
<!DOCTYPE svg PUBLIC "-//W3C//DTD SVG 1.1//EN" "http://www.w3.org/Graphics/SVG/1.1/DTD/svg11.dtd" [
	<!ENTITY ns_extend "http://ns.adobe.com/Extensibility/1.0/">
	<!ENTITY ns_ai "http://ns.adobe.com/AdobeIllustrator/10.0/">
	<!ENTITY ns_graphs "http://ns.adobe.com/Graphs/1.0/">
	<!ENTITY ns_vars "http://ns.adobe.com/Variables/1.0/">
	<!ENTITY ns_imrep "http://ns.adobe.com/ImageReplacement/1.0/">
	<!ENTITY ns_sfw "http://ns.adobe.com/SaveForWeb/1.0/">
	<!ENTITY ns_custom "http://ns.adobe.com/GenericCustomNamespace/1.0/">
	<!ENTITY ns_adobe_xpath "http://ns.adobe.com/XPath/1.0/">
]>
<svg version="1.1" id="Layer_1" xmlns:x="&ns_extend;" xmlns:i="&ns_ai;" xmlns:graph="&ns_graphs;"
	 xmlns="http://www.w3.org/2000/svg" xmlns:xlink="http://www.w3.org/1999/xlink" x="0px" y="0px" width="1500px" height="1500px"
	 viewBox="0 0 1500 1500" enable-background="new 0 0 1500 1500" xml:space="preserve">
<metadata>
	<sfw  xmlns="&ns_sfw;">
		<slices></slices>
		<sliceSourceBounds  height="1500" width="1500" y="-1500" x="0" bottomLeftOrigin="true"></sliceSourceBounds>
	</sfw>
</metadata>
<g>
	<rect fill-rule="evenodd" clip-rule="evenodd" fill="#FBAD18" fill-opacity="0.0" width="1500" height="1500"/>
	<path fill-rule="evenodd" clip-rule="evenodd" fill="#D68127" d="M149.987,1259.896h1200.025c15.056,0,27.377,12.317,27.377,27.376
		l0,0c0,15.056-12.321,27.373-27.377,27.373H149.987c-15.059,0-27.376-12.317-27.376-27.373l0,0
		C122.611,1272.213,134.929,1259.896,149.987,1259.896z"/>
	<g>
		<path fill-rule="evenodd" clip-rule="evenodd" fill="#FEDD6C" d="M750.039,1173.135c233.054,0,423.135-190.082,423.135-423.135
			c0-233.057-190.081-423.135-423.135-423.135c-233.057,0-423.135,190.078-423.135,423.135
			C326.904,983.053,516.982,1173.135,750.039,1173.135z"/>
		<path fill-rule="evenodd" clip-rule="evenodd" fill="#FEDD6C" d="M750.039,268.841l3.112,0.01l3.105,0.029l3.099,0.049
			l3.099,0.068l3.09,0.088l3.086,0.107l3.082,0.127l3.08,0.146l3.069,0.166l3.066,0.186l3.063,0.202l3.057,0.225l3.05,0.241
			l3.047,0.26l2.942,0.271c6.205,0.55,10.788,6.028,10.238,12.233c-0.551,6.205-6.029,10.788-12.233,10.238l-2.942-0.271
			l-2.904-0.247l-2.91-0.234l-2.913-0.208l-2.92-0.195l-2.927-0.176l-2.926-0.16l-2.937-0.14l-2.937-0.121l-2.945-0.101
			l-2.949-0.084l-2.956-0.065l-2.956-0.049l-2.962-0.026l-2.969-0.01l-2.969,0.01l-2.962,0.026l-2.959,0.049l-2.953,0.065
			l-2.949,0.084l-4.759,0.176c-6.224,0.277-11.491-4.544-11.768-10.768c-0.276-6.221,4.544-11.491,10.769-11.768l1.959-0.082
			l3.086-0.107l3.09-0.088l3.099-0.068l3.099-0.049l3.105-0.029L750.039,268.841L750.039,268.841z M660.684,277.125
			c6.116-1.168,12.028,2.838,13.2,8.958c1.168,6.12-2.839,12.028-8.959,13.2l-4.521,0.869l-2.799,0.563l-2.8,0.583l-2.786,0.596
			l-2.78,0.615l-2.78,0.635l-2.767,0.645l-2.767,0.667l-2.758,0.684l-2.75,0.697l-2.741,0.716l-2.737,0.729l-2.731,0.749
			l-5.127,1.455c-5.983,1.738-12.243-1.702-13.981-7.682c-1.738-5.983,1.703-12.243,7.686-13.981l2.539-0.729l2.855-0.801
			l2.867-0.784l2.871-0.769l2.881-0.752l2.888-0.732l2.894-0.716l2.897-0.697l2.91-0.68l2.91-0.664l2.923-0.645l2.927-0.628
			l2.933-0.609l2.939-0.592L660.684,277.125L660.684,277.125z M550.813,311.897c5.661-2.601,12.36-0.12,14.961,5.541
			c2.602,5.661,0.121,12.357-5.54,14.958c-2.175,0.993-4.339,2.005-6.504,3.021l-2.507,1.201l-2.5,1.214l-2.496,1.227l-2.484,1.247
			l-2.477,1.257l-2.468,1.272l-2.458,1.289l-2.451,1.302l-2.441,1.315l-4.854,2.679l-2.415,1.357l-3.069,1.761
			c-5.381,3.138-12.289,1.318-15.427-4.063s-1.318-12.289,4.063-15.427l3.308-1.897l2.532-1.423l2.542-1.413l2.553-1.396l2.562-1.38
			l2.571-1.367l2.578-1.351l2.592-1.338l2.598-1.322l2.607-1.305l2.617-1.289l2.623-1.276l2.637-1.26l2.641-1.24L550.813,311.897
			L550.813,311.897z M452.429,371.901c4.873-3.88,11.973-3.07,15.85,1.803s3.069,11.973-1.807,15.85l-3.871,3.083l-2.142,1.731
			l-4.248,3.509l-2.106,1.771l-2.096,1.784l-2.087,1.797l-2.077,1.807l-2.061,1.82l-4.098,3.678l-2.028,1.855l-4.03,3.75
			l-2.398,2.279c-4.479,4.323-11.621,4.196-15.947-0.283c-4.326-4.482-4.196-11.625,0.283-15.951l2.594-2.464l2.106-1.973
			l2.119-1.959l2.132-1.95l2.139-1.934l2.155-1.921l2.165-1.914l4.361-3.776l2.201-1.872l2.21-1.859l2.224-1.846l2.232-1.83
			l2.246-1.819L452.429,371.901L452.429,371.901z M371.077,453.486c3.818-4.922,10.905-5.814,15.824-1.996
			c4.922,3.822,5.813,10.908,1.995,15.827l-3.03,3.906l-1.667,2.191l-3.304,4.417l-1.631,2.22l-3.223,4.476l-1.592,2.252
			l-3.148,4.538l-1.549,2.282l-1.54,2.292l-3.037,4.613l-1.748,2.718c-3.33,5.264-10.3,6.829-15.563,3.499
			s-6.829-10.299-3.502-15.563l1.897-2.943l1.585-2.425l1.602-2.416l1.615-2.406l1.627-2.393l1.641-2.386l1.657-2.37l1.67-2.366
			l1.687-2.354l1.692-2.337l1.712-2.337l1.726-2.321l1.738-2.308l1.751-2.298L371.077,453.486L371.077,453.486z M311.357,552.047
			c2.529-5.69,9.199-8.252,14.89-5.719c5.689,2.529,8.255,9.199,5.723,14.889l-1.166,2.601l-1.126,2.549l-2.204,5.13l-1.08,2.575
			l-1.068,2.581l-1.048,2.591l-1.032,2.598l-1.019,2.607l-1.003,2.617l-0.989,2.621l-0.974,2.63l-0.957,2.637l-0.938,2.646
			l-1.592,4.597c-1.995,5.898-8.398,9.063-14.3,7.067c-5.898-1.999-9.063-8.402-7.067-14.3l0.707-2.073l0.973-2.787l0.986-2.773
			l1.006-2.77l1.019-2.761l1.038-2.75l1.052-2.744l1.067-2.734l1.087-2.731l1.104-2.718l1.117-2.711l1.133-2.702l1.148-2.695
			l1.166-2.686l1.182-2.679L311.357,552.047L311.357,552.047z M276.908,662.021c1.094-6.133,6.957-10.215,13.086-9.121
			c6.133,1.097,10.214,6.956,9.121,13.089l-0.514,2.819l-0.495,2.822l-0.479,2.835l-0.462,2.839l-0.443,2.842l-0.426,2.848
			l-0.407,2.855l-0.391,2.861l-0.374,2.868l-0.355,2.871l-0.338,2.877l-0.322,2.881l-0.303,2.891l-0.283,2.894l-0.332,3.629
			c-0.511,6.208-5.957,10.827-12.165,10.316c-6.208-0.511-10.827-5.96-10.315-12.168l0.354-3.919l0.296-3.034l0.319-3.031
			l0.335-3.024l0.355-3.018l0.374-3.014l0.394-3.005l0.407-3.001l0.43-2.995l0.449-2.991l0.466-2.985l0.481-2.975l0.501-2.972
			l0.521-2.965L276.908,662.021L276.908,662.021z M269.623,776.953c-0.355-6.221,4.401-11.55,10.619-11.904
			c6.221-0.355,11.549,4.397,11.904,10.618l0.225,3.796l0.192,2.92l0.211,2.913l0.234,2.91l0.248,2.903l0.267,2.9l0.283,2.891
			l0.303,2.891l0.322,2.885l0.338,2.874l0.355,2.874l0.374,2.865l0.391,2.861l0.407,2.854l0.368,2.464
			c0.941,6.156-3.288,11.914-9.447,12.852c-6.155,0.941-11.911-3.287-12.852-9.446l-0.391-2.601l-0.43-2.995l-0.407-3.005
			l-0.394-3.004l-0.374-3.015l-0.355-3.018l-0.335-3.024l-0.319-3.03l-0.296-3.034l-0.28-3.043l-0.26-3.047l-0.241-3.051
			l-0.225-3.057l-0.205-3.06L269.623,776.953L269.623,776.953z M289.707,890.462c-1.849-5.947,1.475-12.269,7.422-14.121
			c5.95-1.849,12.272,1.475,14.121,7.422l0.804,2.617l0.844,2.686l0.862,2.683l0.879,2.672l0.892,2.67l0.908,2.659l0.928,2.653
			l0.938,2.643l0.957,2.637l0.974,2.631l0.989,2.623l1.003,2.614l1.019,2.607l1.032,2.598l1.833,4.485
			c2.389,5.752-0.332,12.354-6.088,14.746c-5.752,2.393-12.354-0.332-14.746-6.084l-1.934-4.742l-1.087-2.729l-1.067-2.737
			l-1.052-2.744l-1.038-2.751l-1.019-2.76l-1.006-2.768l-0.986-2.776l-0.973-2.786l-0.951-2.787l-0.938-2.799l-0.921-2.81
			l-0.905-2.815l-0.889-2.822L289.707,890.462L289.707,890.462z M336.325,995.813c-3.2-5.342-1.465-12.269,3.877-15.472
			c5.345-3.203,12.271-1.469,15.475,3.877l2.148,3.574l1.442,2.359l1.455,2.351l2.956,4.671l1.497,2.321l3.037,4.612l1.54,2.295
			l1.549,2.279l3.148,4.537l1.592,2.253c1.302,1.819,2.61,3.64,3.936,5.446c3.701,5.013,2.64,12.076-2.373,15.774
			c-5.01,3.701-12.074,2.64-15.775-2.37l-2.486-3.424l-1.687-2.354l-1.67-2.363l-1.657-2.373l-1.641-2.383l-1.627-2.396
			l-1.615-2.405l-1.602-2.415l-1.585-2.426l-1.572-2.435l-1.556-2.444l-1.543-2.455l-3.044-4.941L336.325,995.813L336.325,995.813z
			 M406.677,1087.066c-4.379-4.43-4.336-11.572,0.094-15.95c4.431-4.378,11.576-4.336,15.954,0.098l3.034,3.066l3.912,3.867
			l1.977,1.917l3.98,3.796l4.03,3.75l2.028,1.855l4.098,3.679l2.061,1.819l2.077,1.81l2.087,1.797l3.014,2.556
			c4.782,3.991,5.42,11.106,1.426,15.886c-3.99,4.781-11.106,5.42-15.885,1.429l-3.227-2.731l-4.361-3.779l-2.165-1.91l-2.155-1.924
			l-2.139-1.934l-2.132-1.947l-2.119-1.963l-2.106-1.973l-2.093-1.985l-2.083-1.995l-2.07-2.012l-2.058-2.019l-2.048-2.038
			L406.677,1087.066L406.677,1087.066z M496.614,1159.088c-5.303-3.268-6.953-10.215-3.688-15.521
			c3.265-5.303,10.215-6.953,15.518-3.688l3.802,2.334l2.366,1.43l2.38,1.416l2.386,1.402l4.802,2.761l2.415,1.357l4.854,2.679
			l2.441,1.315l2.451,1.302l2.458,1.289l2.468,1.273l2.477,1.256l3.161,1.579c5.596,2.741,7.91,9.495,5.173,15.091
			c-2.738,5.596-9.496,7.91-15.092,5.173l-3.404-1.699l-2.598-1.321l-2.592-1.335l-2.578-1.354l-2.571-1.363l-2.562-1.384
			l-2.553-1.396l-2.542-1.409l-2.532-1.426l-2.523-1.442l-2.513-1.455l-2.507-1.472l-2.493-1.484l-2.487-1.5L496.614,1159.088
			L496.614,1159.088z M601.081,1207.656c-5.925-1.924-9.17-8.288-7.246-14.213c1.924-5.924,8.284-9.166,14.212-7.246l2.927,0.944
			l2.686,0.843l2.698,0.83l2.702,0.814l2.708,0.797l5.439,1.543l2.731,0.749l2.737,0.732l2.741,0.713l2.75,0.7l2.758,0.68
			l2.767,0.668l2.767,0.647l4.018,0.905c6.087,1.324,9.947,7.337,8.623,13.421c-1.325,6.087-7.334,9.948-13.422,8.623l-4.29-0.967
			l-2.91-0.684l-2.897-0.696l-2.894-0.717l-2.888-0.732l-2.881-0.752l-2.871-0.765l-2.867-0.788l-2.855-0.801l-2.852-0.82
			l-2.848-0.836l-2.836-0.854l-2.825-0.869l-2.822-0.889L601.081,1207.656L601.081,1207.656z M714.196,1229.844
			c-6.215-0.434-10.902-5.824-10.469-12.038c0.433-6.214,5.823-10.898,12.037-10.469l4.812,0.332l2.923,0.176l2.93,0.159
			l2.937,0.141l2.937,0.12l2.945,0.101l2.949,0.088l2.953,0.065l2.959,0.046l2.962,0.029l2.969,0.006l2.969-0.006l2.962-0.029
			l3.813-0.065c6.227-0.159,11.402,4.763,11.559,10.989c0.16,6.228-4.762,11.403-10.986,11.56l-4.098,0.075l-3.105,0.029
			l-3.112,0.01l-3.112-0.01l-3.105-0.029l-3.099-0.053l-3.099-0.068l-3.09-0.088l-3.086-0.107l-3.082-0.127l-3.08-0.146
			l-3.072-0.162l-3.066-0.186L714.196,1229.844L714.196,1229.844z M829.241,1224.671c-6.146,1.016-11.953-3.142-12.969-9.284
			c-1.019-6.146,3.139-11.953,9.284-12.972l2.852-0.481l2.822-0.495l2.819-0.515l2.818-0.527l2.807-0.547l2.799-0.566l2.8-0.582
			l2.786-0.596l2.78-0.615l2.78-0.632l2.767-0.647l2.767-0.668l2.758-0.68l2.747-0.7l3.88-1.019
			c6.013-1.628,12.207,1.93,13.835,7.942s-1.927,12.207-7.939,13.835l-4.153,1.09l-2.888,0.732l-2.894,0.717l-2.897,0.696
			l-2.91,0.684l-2.913,0.661l-2.92,0.647l-2.93,0.625l-2.93,0.612l-2.939,0.592l-2.949,0.573l-2.953,0.557l-2.959,0.537
			l-2.965,0.521L829.241,1224.671L829.241,1224.671z M939.841,1192.275c-5.723,2.461-12.36-0.183-14.818-5.905
			c-2.464-5.723,0.183-12.36,5.902-14.821l2.747-1.188l2.549-1.127l2.546-1.139l2.532-1.156l5.046-2.356l2.51-1.198l2.5-1.214
			l2.496-1.23l2.484-1.247l2.477-1.256l2.468-1.273l2.458-1.289l2.447-1.302l4.284-2.324c5.456-3.008,12.317-1.022,15.325,4.434
			c3.005,5.456,1.02,12.317-4.437,15.325l-4.521,2.455l-2.571,1.363l-2.582,1.354l-2.588,1.335l-2.598,1.321l-2.607,1.306
			l-2.617,1.289l-2.623,1.275l-2.637,1.26l-2.641,1.244l-2.652,1.227l-2.66,1.215l-2.669,1.194l-2.679,1.182L939.841,1192.275
			L939.841,1192.275z M1039.495,1134.388c-4.967,3.763-12.041,2.783-15.804-2.185c-3.76-4.964-2.78-12.041,2.185-15.801l2.939-2.229
			l2.181-1.683l2.171-1.696l2.162-1.709l2.148-1.722l2.142-1.732l4.248-3.509l2.106-1.768l2.096-1.784l2.087-1.797l2.077-1.81
			l2.061-1.819c1.819-1.621,3.629-3.249,5.426-4.893c4.587-4.219,11.723-3.92,15.938,0.664c4.219,4.583,3.92,11.722-0.664,15.938
			l-3.574,3.242l-2.151,1.924l-2.165,1.91l-4.365,3.779l-2.197,1.869l-2.213,1.858l-2.221,1.846l-2.232,1.833l-2.246,1.819
			l-2.256,1.804l-2.266,1.79l-2.275,1.78l-2.292,1.768L1039.495,1134.388L1039.495,1134.388z M1122.565,1054.554
			c-3.936,4.827-11.045,5.547-15.873,1.611c-4.827-3.936-5.547-11.042-1.611-15.869l2.321-2.854l1.722-2.152l1.709-2.161
			l1.693-2.171l1.686-2.182l1.667-2.19l3.304-4.414l1.631-2.224l3.223-4.476l1.592-2.253l3.145-4.537l2.533-3.74
			c3.453-5.183,10.459-6.582,15.641-3.129c5.183,3.457,6.582,10.463,3.129,15.645l-2.686,3.969l-1.641,2.383l-1.657,2.373
			l-1.67,2.363l-1.687,2.354l-1.695,2.34l-1.709,2.334l-1.729,2.321l-1.735,2.308l-1.755,2.299l-1.764,2.291l-1.781,2.275
			l-1.79,2.27l-1.807,2.252L1122.565,1054.554L1122.565,1054.554z M1184.375,957.291c-2.669,5.629-9.397,8.027-15.026,5.361
			c-5.625-2.669-8.023-9.397-5.354-15.025c1.009-2.116,1.999-4.238,2.985-6.364l1.155-2.536l1.14-2.542l1.126-2.552l2.204-5.127
			l1.08-2.578l1.068-2.582l1.048-2.591l1.032-2.598l1.019-2.607l1.003-2.614l0.989-2.623l1.194-3.246
			c2.106-5.862,8.568-8.909,14.431-6.803c5.859,2.105,8.906,8.567,6.8,14.43l-1.292,3.506l-1.035,2.751l-1.052,2.744l-1.067,2.737
			l-1.087,2.729l-1.104,2.721l-1.117,2.709l-1.133,2.705l-1.148,2.691l-1.166,2.686l-1.182,2.68l-1.194,2.669l-1.214,2.659
			l-1.228,2.653L1184.375,957.291L1184.375,957.291z M1221.185,848.099c-1.246,6.101-7.207,10.036-13.311,8.789
			c-6.104-1.25-10.035-7.214-8.789-13.313l0.801-3.939l0.547-2.806l0.531-2.815l0.514-2.822l0.495-2.822l0.479-2.832l0.462-2.839
			l0.443-2.842l0.426-2.852l0.407-2.854l0.391-2.861l0.374-2.865l0.355-2.874l0.338-2.874l0.29-2.602
			c0.667-6.194,6.23-10.674,12.425-10.006c6.195,0.67,10.674,6.233,10.004,12.425l-0.303,2.744l-0.355,3.018l-0.374,3.015
			l-0.394,3.004l-0.41,3.005l-0.427,2.995l-0.449,2.988l-0.466,2.984l-0.481,2.976l-0.501,2.972l-0.521,2.966l-0.54,2.959
			l-0.554,2.952l-0.576,2.949L1221.185,848.099L1221.185,848.099z M1230.911,733.281c0.234,6.224-4.619,11.465-10.843,11.699
			c-6.228,0.237-11.465-4.619-11.699-10.843l-0.186-4.811l-0.14-2.937l-0.16-2.926l-0.176-2.926l-0.195-2.92l-0.208-2.914
			l-0.234-2.91l-0.247-2.904l-0.268-2.897l-0.283-2.894l-0.303-2.891l-0.322-2.881l-0.338-2.877l-0.527-4.199
			c-0.824-6.175,3.512-11.849,9.688-12.672c6.175-0.824,11.849,3.516,12.672,9.688l0.566,4.479l0.355,3.018l0.335,3.024l0.319,3.031
			l0.296,3.034l0.28,3.044l0.26,3.047l0.241,3.05l0.225,3.057l0.202,3.063l0.188,3.066l0.163,3.069l0.146,3.08L1230.911,733.281
			L1230.911,733.281z M1213.265,619.43c1.703,5.993-1.777,12.23-7.767,13.932c-5.996,1.699-12.233-1.777-13.933-7.77l-1.104-3.864
			l-0.794-2.705l-0.817-2.705l-0.826-2.695l-0.847-2.689l-0.859-2.682l-0.879-2.673l-0.892-2.666l-0.912-2.663l-0.924-2.65
			l-0.941-2.646l-0.953-2.637l-0.974-2.63l-0.989-2.621l-1.228-3.193c-2.285-5.797,0.56-12.347,6.357-14.632
			c5.794-2.285,12.344,0.563,14.629,6.357l1.328,3.451l1.035,2.75l1.022,2.761l1.006,2.77l0.986,2.773l0.97,2.787l0.954,2.79
			l0.938,2.799l0.921,2.806l0.905,2.816l0.885,2.822l0.873,2.825l0.853,2.835l0.837,2.848L1213.265,619.43L1213.265,619.43z
			 M1168.929,513.089c3.07,5.42,1.169,12.305-4.251,15.378c-5.417,3.069-12.302,1.168-15.374-4.248
			c-0.922-1.634-1.865-3.255-2.803-4.88l-1.403-2.386l-1.416-2.376l-1.429-2.37l-1.442-2.36l-1.455-2.347l-2.956-4.675l-1.497-2.321
			l-3.04-4.613l-1.537-2.292l-1.553-2.282l-2.984-4.31c-3.578-5.098-2.348-12.132,2.75-15.709c5.098-3.581,12.133-2.347,15.713,2.75
			l1.498,2.142l1.641,2.386l1.627,2.393l1.615,2.406l1.602,2.416l1.585,2.425l1.572,2.435l1.556,2.445l1.543,2.454l3.044,4.941
			l1.501,2.487l1.484,2.493l1.471,2.507l1.455,2.513L1168.929,513.089L1168.929,513.089z M1100.537,420.354
			c4.271,4.535,4.06,11.673-0.476,15.944c-4.531,4.271-11.673,4.059-15.943-0.476c-1.325-1.416-2.673-2.815-4.014-4.215
			l-1.918-1.973l-3.867-3.916l-3.916-3.867l-1.973-1.917l-3.98-3.795l-4.03-3.75l-2.028-1.855c-1.969-1.777-3.945-3.545-5.934-5.299
			c-4.685-4.105-5.153-11.234-1.049-15.918c4.105-4.685,11.234-5.153,15.918-1.048l4.092,3.636l2.143,1.934l2.132,1.95l2.119,1.959
			l2.106,1.973l2.093,1.986l2.083,1.999l2.07,2.009l2.058,2.021l2.048,2.034l2.034,2.048l2.021,2.057l2.012,2.07l1.995,2.083
			L1100.537,420.354L1100.537,420.354z M1012.155,346.438c5.225,3.392,6.705,10.378,3.313,15.603s-10.381,6.706-15.605,3.313
			l-2.649-1.712l-4.672-2.956l-2.35-1.458l-2.36-1.442l-2.37-1.429l-2.376-1.416l-2.386-1.403l-4.802-2.76l-2.415-1.357
			l-4.857-2.679l-2.441-1.315l-4.316-2.282c-5.527-2.871-7.676-9.685-4.805-15.208c2.875-5.527,9.685-7.679,15.212-4.805
			l4.561,2.409l2.559,1.38l2.556,1.396l2.542,1.413l2.532,1.423l2.523,1.442l2.513,1.455l2.507,1.471l2.493,1.484l2.487,1.501
			l4.941,3.043l2.454,1.543l2.444,1.556L1012.155,346.438L1012.155,346.438z M908.698,295.618c5.889,2.031,9.014,8.454,6.982,14.343
			c-2.035,5.885-8.457,9.014-14.346,6.982l-4.209-1.452l-2.666-0.892l-2.673-0.879l-2.683-0.859l-2.688-0.847l-2.695-0.83
			l-2.702-0.813l-2.708-0.794l-5.439-1.546l-2.731-0.749l-2.737-0.729l-2.744-0.716l-2.747-0.697l-2.758-0.684l0.01,0.003
			c-6.061-1.439-9.808-7.52-8.369-13.581c1.439-6.062,7.52-9.808,13.581-8.369l3.018,0.745l2.888,0.732l2.881,0.752l2.871,0.769
			l2.867,0.784l2.855,0.801l2.852,0.82l2.848,0.837l2.836,0.853l2.825,0.873l2.822,0.885l2.815,0.905l2.807,0.921l2.799,0.938
			L908.698,295.618z"/>
	</g>
	<g>
		<g>
			<g>
				<path fill-rule="evenodd" clip-rule="evenodd" fill="#100F1F" d="M220.319,1052.317h279.957v10.95
					c0,6.022-4.925,10.951-10.947,10.951H231.27c-6.022,0-10.95-4.929-10.95-10.951V1052.317z"/>
				<path fill-rule="evenodd" clip-rule="evenodd" fill="#05060E" d="M220.319,1052.317h279.957v10.95
					c0,1.469-0.293,2.871-0.823,4.154H221.143c-0.527-1.283-0.823-2.686-0.823-4.154V1052.317z"/>
				<path fill-rule="evenodd" clip-rule="evenodd" fill="#A71C20" d="M216.064,1001.097h290.062
					c15.059,0,27.377,12.321,27.377,27.376l0,0c0,15.059-12.318,27.377-27.377,27.377H216.064
					c-15.055,0-27.373-12.318-27.373-27.377l0,0C188.691,1013.418,201.009,1001.097,216.064,1001.097z"/>
				<path fill-rule="evenodd" clip-rule="evenodd" fill="#A71C20" d="M334.346,1035.563l-37.1-138.45
					c-3.896-14.541,4.814-29.629,19.358-33.525l0,0c14.545-3.896,29.629,4.814,33.525,19.358l37.1,138.447
					c3.896,14.541-4.814,29.629-19.355,33.525h-0.003C353.327,1058.814,338.242,1050.104,334.346,1035.563z"/>
				<path fill-rule="evenodd" clip-rule="evenodd" fill="#A71C20" d="M296.318,743.203v143.33c0,15.059,12.314,27.376,27.373,27.376
					l0,0c15.059,0,27.376-12.317,27.376-27.376v-143.33c0-15.059-12.317-27.373-27.376-27.373l0,0
					C308.633,715.83,296.318,728.145,296.318,743.203z"/>
				<polygon fill-rule="evenodd" clip-rule="evenodd" fill="#A71C20" points="179.15,715.83 325.811,715.83 325.811,886.65 
					364.304,1030.306 217.644,1030.306 182.826,900.364 179.15,900.364 179.15,886.65 				"/>
				<path fill-rule="evenodd" clip-rule="evenodd" fill="#ED1C24" d="M189.805,1035.563l-37.096-138.45
					c-3.896-14.541,4.811-29.629,19.355-33.525h0.003c14.541-3.896,29.629,4.814,33.525,19.358l37.096,138.447
					c3.896,14.541-4.811,29.629-19.355,33.525h-0.003C208.789,1058.814,193.701,1050.104,189.805,1035.563z"/>
				<path fill-rule="evenodd" clip-rule="evenodd" fill="#ED1C24" d="M151.777,743.203v143.33c0,15.059,12.318,27.376,27.373,27.376
					h0.003c15.055,0,27.373-12.317,27.373-27.376v-143.33c0-15.059-12.318-27.373-27.373-27.373h-0.003
					C164.095,715.83,151.777,728.145,151.777,743.203z"/>
				<path fill-rule="evenodd" clip-rule="evenodd" fill="#ED1C24" d="M216.064,1001.097h112.669
					c15.059,0,27.377,12.321,27.377,27.376l0,0c0,15.059-12.318,27.377-27.377,27.377H216.064
					c-15.055,0-27.373-12.318-27.373-27.377l0,0C188.691,1013.418,201.009,1001.097,216.064,1001.097z"/>
				<path fill-rule="evenodd" clip-rule="evenodd" fill="#100F1F" d="M381.116,1233.668v-77.129c0-11.451-9.365-20.82-20.816-20.82
					h-0.004c-11.448,0-20.816,9.369-20.816,20.82v76.855c0,0.15,0.123,0.273,0.273,0.273H381.116z"/>
				<path fill-rule="evenodd" clip-rule="evenodd" fill="#100F1F" d="M372.897,1067.767v104.329c0,6.931-5.671,12.598-12.598,12.598
					h-0.004c-6.927,0-12.594-5.667-12.594-12.598v-104.163c0-0.091,0.071-0.166,0.166-0.166H372.897z"/>
				<path fill-rule="evenodd" clip-rule="evenodd" fill="#05060E" d="M372.897,1065.318v74.675
					c4.986,3.812,8.219,9.821,8.219,16.546v77.129h-25.628c-0.144-0.006-0.261-0.127-0.261-0.273v-49.771v-27.084
					c0-6.725,3.236-12.734,8.223-16.546v-4.033v-70.472c0-0.092,0.075-0.17,0.166-0.17H372.897z"/>
				<path fill-rule="evenodd" clip-rule="evenodd" fill="#100F1F" d="M455.944,1233.668h-191.13
					c-6.927,0-12.594-5.667-12.594-12.598v-0.003c0-6.927,5.667-12.595,12.594-12.595h190.967c6.927,0,12.595,5.668,12.595,12.595
					v0.169C468.376,1228.076,462.783,1233.668,455.944,1233.668z"/>
				<g>
					<path fill-rule="evenodd" clip-rule="evenodd" fill="#05060E" d="M273.454,1271.969c10.075,0,18.294-8.219,18.294-18.297
						c0-10.075-8.219-18.291-18.294-18.291c-10.075,0-18.294,8.216-18.294,18.291C255.16,1263.75,263.379,1271.969,273.454,1271.969
						z"/>
					<path fill-rule="evenodd" clip-rule="evenodd" fill="#100F1F" d="M267.881,1271.104c-7.376-2.357-12.721-9.268-12.721-17.429
						s5.345-15.071,12.721-17.429c7.38,2.357,12.725,9.268,12.725,17.429S275.261,1268.746,267.881,1271.104z"/>
				</g>
				<g>
					<path fill-rule="evenodd" clip-rule="evenodd" fill="#A71C20" d="M273.454,1252.483h-21.299
						c0-11.765,9.534-21.302,21.299-21.302c11.764,0,21.299,9.537,21.299,21.302H273.454z"/>
					<path fill-rule="evenodd" clip-rule="evenodd" fill="#ED1C24" d="M273.454,1252.483l-21.299-0.003
						c0-10.176,7.135-18.682,16.676-20.795c9.541,2.113,16.683,10.619,16.683,20.798H273.454z"/>
				</g>
				<path fill-rule="evenodd" clip-rule="evenodd" fill="#05060E" d="M455.947,1233.668h-99.944
					c-6.928,0-12.595-5.667-12.595-12.598v-0.003c0-6.927,5.667-12.595,12.595-12.595h99.778c6.927,0,12.595,5.668,12.595,12.595
					v0.169C468.376,1228.076,462.783,1233.668,455.947,1233.668z"/>
				<g>
					<path fill-rule="evenodd" clip-rule="evenodd" fill="#05060E" d="M329.092,1271.969c10.075,0,18.294-8.219,18.294-18.297
						c0-10.075-8.219-18.291-18.294-18.291c-10.078,0-18.294,8.216-18.294,18.291
						C310.798,1263.75,319.014,1271.969,329.092,1271.969z"/>
					<path fill-rule="evenodd" clip-rule="evenodd" fill="#100F1F" d="M323.519,1271.104c-7.379-2.357-12.721-9.268-12.721-17.429
						s5.342-15.071,12.721-17.429c7.38,2.357,12.722,9.268,12.722,17.429S330.898,1268.746,323.519,1271.104z"/>
				</g>
				<g>
					<path fill-rule="evenodd" clip-rule="evenodd" fill="#05060E" d="M391.507,1271.969c10.075,0,18.295-8.219,18.295-18.297
						c0-10.075-8.22-18.291-18.295-18.291c-10.078,0-18.294,8.216-18.294,18.291C373.213,1263.75,381.429,1271.969,391.507,1271.969
						z"/>
					<path fill-rule="evenodd" clip-rule="evenodd" fill="#100F1F" d="M385.935,1271.104c-7.377-2.357-12.722-9.268-12.722-17.429
						s5.345-15.071,12.722-17.429c7.379,2.357,12.721,9.268,12.721,17.429S393.313,1268.746,385.935,1271.104z"/>
				</g>
				<g>
					<path fill-rule="evenodd" clip-rule="evenodd" fill="#05060E" d="M447.142,1271.969c10.078,0,18.295-8.219,18.295-18.297
						c0-10.075-8.217-18.291-18.295-18.291c-10.074,0-18.294,8.216-18.294,18.291
						C428.848,1263.75,437.067,1271.969,447.142,1271.969z"/>
					<path fill-rule="evenodd" clip-rule="evenodd" fill="#100F1F" d="M441.572,1271.104c-7.38-2.357-12.725-9.268-12.725-17.429
						s5.345-15.071,12.725-17.429c7.376,2.357,12.722,9.268,12.722,17.429S448.948,1268.746,441.572,1271.104z"/>
				</g>
				<g>
					<path fill-rule="evenodd" clip-rule="evenodd" fill="#A71C20" d="M329.092,1252.483H307.79
						c0-11.765,9.537-21.302,21.302-21.302c11.761,0,21.299,9.537,21.299,21.302H329.092z"/>
					<path fill-rule="evenodd" clip-rule="evenodd" fill="#ED1C24" d="M329.092,1252.483l-21.302-0.003
						c0-10.176,7.135-18.682,16.68-20.795c9.541,2.113,16.683,10.619,16.683,20.798H329.092z"/>
				</g>
				<g>
					<path fill-rule="evenodd" clip-rule="evenodd" fill="#A71C20" d="M391.507,1252.483h-21.302
						c0-11.765,9.538-21.302,21.302-21.302c11.765,0,21.299,9.537,21.299,21.302H391.507z"/>
					<path fill-rule="evenodd" clip-rule="evenodd" fill="#ED1C24" d="M391.507,1252.483l-21.302-0.003
						c0-10.176,7.139-18.682,16.68-20.795c9.541,2.113,16.68,10.619,16.68,20.798H391.507z"/>
				</g>
				<g>
					<path fill-rule="evenodd" clip-rule="evenodd" fill="#A71C20" d="M447.142,1252.483H425.84
						c0-11.765,9.538-21.302,21.302-21.302c11.765,0,21.303,9.537,21.303,21.302H447.142z"/>
					<path fill-rule="evenodd" clip-rule="evenodd" fill="#ED1C24" d="M447.142,1252.483l-21.302-0.003
						c0-10.176,7.139-18.682,16.683-20.795c9.541,2.113,16.68,10.619,16.68,20.798H447.142z"/>
				</g>
			</g>
			<g>
				<path fill-rule="evenodd" clip-rule="evenodd" fill="#F4A756" d="M871.24,517.2l30.638,30.635c0,0.003,0,0.003,0,0
					l86.781-86.777c8.359-8.359,8.359-22.041,0-30.4l-0.238-0.237c-8.359-8.359-22.037-8.359-30.4,0L871.24,517.2z"/>
				<path fill-rule="evenodd" clip-rule="evenodd" fill="#FCB975" d="M991.696,434.479c-0.847-1.361-1.859-2.643-3.037-3.822
					l-0.238-0.237c-8.359-8.359-22.037-8.359-30.4,0l-52.923,52.923l18.867,18.867c0,0,0,0,0.003,0L991.696,434.479z"/>
				<path fill-rule="evenodd" clip-rule="evenodd" fill="#F4A756" d="M732.136,517.2l30.635,30.635c0.003,0.003,0.003,0.003,0.003,0
					l86.78-86.777c8.359-8.359,8.359-22.041-0.003-30.4l-0.234-0.237c-8.359-8.359-22.041-8.359-30.4,0L732.136,517.2z"/>
				<path fill-rule="evenodd" clip-rule="evenodd" fill="#F4A756" d="M817.722,452.881v21.663h42.22
					c11.914,0,21.663-9.749,21.663-21.663l0,0c0-11.917-9.749-21.664-21.663-21.664h-20.56
					C827.468,431.217,817.722,440.963,817.722,452.881z"/>
				<path fill-rule="evenodd" clip-rule="evenodd" fill="#FCB975" d="M853.972,437.09c-1.039-2.337-2.51-4.525-4.421-6.433
					l-0.234-0.237c-8.359-8.359-22.041-8.359-30.4,0l-79.749,79.749l22.666,22.666c0,0.003,0,0.003,0.003,0l86.777-86.777
					C851.201,443.473,852.985,440.377,853.972,437.09z"/>
				<path fill-rule="evenodd" clip-rule="evenodd" fill="#FCB975" d="M853.972,437.09c-1.039-2.337-2.51-4.525-4.421-6.433
					l-0.234-0.237c-8.359-8.359-22.041-8.359-30.4,0l-2.835,2.835v25.863h19.473l13.06-13.06
					C851.201,443.473,852.985,440.377,853.972,437.09z"/>
				<rect x="842.819" y="399.137" fill-rule="evenodd" clip-rule="evenodd" fill="#398EB6" width="8.057" height="18.213"/>
				<path fill-rule="evenodd" clip-rule="evenodd" fill="#191152" d="M846.849,401.191c21.195,0,38.483-17.289,38.483-38.486
					c0-21.195-17.288-38.483-38.483-38.483c-21.197,0-38.482,17.289-38.482,38.483C808.366,383.903,825.651,401.191,846.849,401.191
					z"/>
				<path fill-rule="evenodd" clip-rule="evenodd" fill="#E1F4FD" d="M846.849,393.06c16.716,0,30.352-13.633,30.352-30.352
					s-13.636-30.352-30.352-30.352c-16.719,0-30.352,13.633-30.352,30.352S830.13,393.06,846.849,393.06z"/>
				<path fill-rule="evenodd" clip-rule="evenodd" fill="#191152" d="M842.171,412.565h9.355c0.879,0,1.596,0.719,1.596,1.595
					v34.983c0,3.454-2.822,6.273-6.273,6.273l0,0c-3.45,0-6.272-2.819-6.272-6.273V414.16
					C840.576,413.284,841.292,412.565,842.171,412.565z"/>
				<path fill-rule="evenodd" clip-rule="evenodd" fill="#421B0B" d="M652.314,219.733L652.314,219.733
					c52.761,0,95.928,43.167,95.928,95.931v228.014c0,52.76-43.167,95.928-95.928,95.928l0,0c-52.764,0-95.928-43.167-95.928-95.928
					V315.664C556.387,262.9,599.551,219.733,652.314,219.733z"/>
				<path fill-rule="evenodd" clip-rule="evenodd" fill="#62280E" d="M652.314,219.733L652.314,219.733
					c3.21,0,6.384,0.163,9.515,0.475v418.923c-3.131,0.313-6.305,0.475-9.515,0.475l0,0c-52.764,0-95.928-43.167-95.928-95.928
					V315.664C556.387,262.9,599.551,219.733,652.314,219.733z"/>
				<path fill-rule="evenodd" clip-rule="evenodd" fill="#E6E7E8" d="M603.772,481.084h110.368
					c24.258,0,44.104,19.847,44.104,44.104v470.215H519.196V565.664C519.196,519.144,557.256,481.084,603.772,481.084z"/>
				<path fill-rule="evenodd" clip-rule="evenodd" fill="#191152" d="M521.472,772.285h236.773v57.711
					c0,31.738-25.967,57.709-57.708,57.709H579.079c-31.738,0-57.709-25.971-57.709-57.709v-57.607
					C521.37,772.33,521.416,772.285,521.472,772.285z"/>
				<rect x="545.999" y="853.584" fill-rule="evenodd" clip-rule="evenodd" fill="#191152" width="72.412" height="381.829"/>
				<rect x="545.999" y="853.584" fill-rule="evenodd" clip-rule="evenodd" fill="#2D2D7E" width="36.208" height="381.829"/>
				<rect x="660.195" y="853.584" fill-rule="evenodd" clip-rule="evenodd" fill="#191152" width="72.409" height="381.829"/>
				<path fill-rule="evenodd" clip-rule="evenodd" fill="#2D2D7E" d="M521.472,772.285h134.273v57.711
					c0,31.738-25.967,57.709-57.708,57.709h-18.958c-31.738,0-57.709-25.971-57.709-57.709v-57.607
					C521.37,772.33,521.416,772.285,521.472,772.285z"/>
				<g>
					<path fill-rule="evenodd" clip-rule="evenodd" fill="#FFFFFF" d="M704.944,493.467L704.944,493.467
						c11.152-11.152,29.404-11.152,40.557,0l94.44,94.443c11.152,11.152,11.152,29.401,0,40.553l0,0
						c-11.152,11.152-29.401,11.152-40.554,0l-94.443-94.44C693.792,522.871,693.792,504.619,704.944,493.467z"/>
					<path fill-rule="evenodd" clip-rule="evenodd" fill="#FFFFFF" d="M955.319,513.743l-40.551-40.553c-0.003,0-0.003,0-0.006,0
						L799.89,588.066c-11.068,11.067-11.068,29.173,0,40.241l0.313,0.313c11.067,11.068,29.176,11.068,40.24,0L955.319,513.743z"/>
				</g>
				<path fill-rule="evenodd" clip-rule="evenodd" fill="#E6E7E8" d="M955.319,513.747l-19.88-19.879L818.216,611.09l-20.537-20.537
					l-76.207-76.205c-6.413-6.416-14.639-9.987-23.066-10.719c-3.822,10.215-1.641,22.213,6.539,30.394l94.443,94.44
					c4.665,4.665,10.57,7.379,16.68,8.141c8.637,1.289,17.764-1.37,24.375-7.981L955.319,513.747z"/>
				<rect x="609.362" y="481.084" fill-rule="evenodd" clip-rule="evenodd" fill="#398EB6" width="93.75" height="291.201"/>
				<rect x="609.358" y="481.084" fill-rule="evenodd" clip-rule="evenodd" fill="#3CAAE1" width="46.879" height="291.201"/>
				<path fill-rule="evenodd" clip-rule="evenodd" fill="#F4A756" d="M656.233,352.799h0.004c14.518,0,26.396,11.878,26.396,26.396
					v101.563c0,14.518-11.879,26.396-26.396,26.396h-0.004c-14.518,0-26.396-11.878-26.396-26.396V379.196
					C629.837,364.678,641.716,352.799,656.233,352.799z"/>
				<path fill-rule="evenodd" clip-rule="evenodd" fill="#FCB975" d="M656.247,507.155h-0.01h-0.004
					c-14.518,0-26.396-11.878-26.396-26.396V379.196c0-6.953,2.729-13.301,7.162-18.027h0.01h0.003
					c14.519,0,26.394,11.878,26.394,26.396v101.563C663.405,496.081,660.681,502.428,656.247,507.155z"/>
				<path fill-rule="evenodd" clip-rule="evenodd" fill="#FFFFFF" d="M702.995,481.084h9.703c24.99,0,45.434,20.446,45.434,45.433
					v468.887h-55.137V481.084z"/>
				<path fill-rule="evenodd" clip-rule="evenodd" fill="#E6E7E8" d="M730.677,484.817c16.113,6.999,27.455,23.089,27.455,41.699
					v468.887h-27.455V484.817z"/>
				<path fill-rule="evenodd" clip-rule="evenodd" fill="#FFFFFF" d="M603.923,481.084h10.237v514.319h-97.366V568.209
					C516.794,520.29,556.003,481.084,603.923,481.084z"/>
				<path fill-rule="evenodd" clip-rule="evenodd" fill="#E6E7E8" d="M603.923,495.954h10.237v499.45h-52.165V516.286
					c0-1.107,0.02-2.21,0.049-3.311C574.492,506.1,588.77,495.954,603.923,495.954z"/>
				<path fill-rule="evenodd" clip-rule="evenodd" fill="#421B0B" d="M545.999,1231.768h85.98c12.376,0,22.5,10.127,22.5,22.5v22.5
					h-108.48V1231.768z"/>
				<path fill-rule="evenodd" clip-rule="evenodd" fill="#FFFFFF" d="M566.318,493.467L566.318,493.467
					c11.152-11.152,29.401-11.152,40.557,0l94.44,94.443c11.152,11.152,11.152,29.401,0,40.553l0,0
					c-11.152,11.152-29.401,11.152-40.554,0l-94.443-94.44C555.166,522.871,555.166,504.619,566.318,493.467z"/>
				<path fill-rule="evenodd" clip-rule="evenodd" fill="#F4A756" d="M962.952,456.126l15.319,15.319l29.856-29.854
					c8.425-8.428,8.425-22.21,0-30.638h-0.003c-8.425-8.424-22.21-8.424-30.635,0l-14.538,14.538
					C954.528,433.916,954.528,447.702,962.952,456.126z"/>
				<path fill-rule="evenodd" clip-rule="evenodd" fill="#FFFFFF" d="M816.692,513.743L776.14,473.19h-0.004L661.263,588.066
					c-11.067,11.067-11.067,29.173,0,40.241l0.313,0.313c11.068,11.068,29.174,11.068,40.241,0L816.692,513.743z"/>
				<path fill-rule="evenodd" clip-rule="evenodd" fill="#E6E7E8" d="M816.692,513.743l-19.879-19.879L679.59,611.09l-20.537-20.537
					l-76.208-76.208c-6.412-6.413-14.639-9.984-23.066-10.716c-3.821,10.215-1.641,22.213,6.54,30.394l94.443,94.44
					c4.665,4.665,10.569,7.376,16.68,8.138c8.636,1.292,17.764-1.367,24.375-7.982L816.692,513.743z"/>
				<path fill-rule="evenodd" clip-rule="evenodd" fill="#FCB975" d="M945.599,419.446L945.599,419.446
					c5.264,0,9.567,4.304,9.567,9.567v26.487c0,5.261-4.304,9.567-9.567,9.567l0,0c-5.264,0-9.566-4.307-9.566-9.567v-26.487
					C936.032,423.75,940.335,419.446,945.599,419.446z"/>
				<path fill-rule="evenodd" clip-rule="evenodd" fill="#FCB975" d="M817.722,452.881v6.237h48.828
					c5.582,0,10.768-1.791,15.006-4.828c0.033-0.465,0.049-0.934,0.049-1.409l0,0c0-11.917-9.749-21.664-21.663-21.664h-20.56
					C827.468,431.217,817.722,440.963,817.722,452.881z"/>
				<rect x="959.58" y="321.79" fill-rule="evenodd" clip-rule="evenodd" fill="#E1F4FD" width="19.531" height="90.635"/>
				<path fill-rule="evenodd" clip-rule="evenodd" fill="#C3DCE8" d="M975.651,321.79h3.46v41.315
					c-3.128-1.787-6.517-3.164-10.101-4.063v-31.556h0.943C973.086,327.487,975.651,324.925,975.651,321.79z"/>
				<path fill-rule="evenodd" clip-rule="evenodd" fill="#E1F4FD" d="M969.346,438.06c22.09,0,40.107-18.018,40.107-40.11
					c0-22.09-18.018-40.107-40.107-40.107s-40.107,18.018-40.107,40.107C929.238,420.042,947.256,438.06,969.346,438.06z"/>
				<path fill-rule="evenodd" clip-rule="evenodd" fill="#C3DCE8" d="M969.346,357.845c22.151,0,40.107,17.956,40.107,40.107
					c0,22.148-17.956,40.107-40.107,40.107c-1.712,0-3.398-0.107-5.052-0.315c19.769-2.484,35.059-19.353,35.059-39.792
					c0-18.782-12.91-34.547-30.342-38.909v-1.195L969.346,357.845z"/>
				<path fill-rule="evenodd" clip-rule="evenodd" fill="#E1F4FD" d="M958.636,316.094h21.42c3.131,0,5.693,2.565,5.693,5.696l0,0
					c0,3.135-2.563,5.697-5.693,5.697h-21.42c-3.135,0-5.696-2.562-5.696-5.697l0,0
					C952.939,318.659,955.501,316.094,958.636,316.094z"/>
				<path fill-rule="evenodd" clip-rule="evenodd" fill="#C3DCE8" d="M969.954,316.094h10.102c3.131,0,5.693,2.565,5.693,5.696l0,0
					c0,3.135-2.563,5.697-5.693,5.697h-10.102C977.331,327.487,977.715,316.094,969.954,316.094z"/>
				<path fill-rule="evenodd" clip-rule="evenodd" fill="#ED1C24" d="M969.346,397.952h-33.994
					c0,18.773,15.218,33.994,33.994,33.994c18.772,0,33.994-15.221,33.994-33.994H969.346z"/>
				<path fill-rule="evenodd" clip-rule="evenodd" fill="#B81E23" d="M986.699,427.188c9.961-5.928,16.641-16.8,16.641-29.235
					h-3.987C999.353,409.479,994.485,419.87,986.699,427.188z"/>
				<path fill-rule="evenodd" clip-rule="evenodd" fill="#F4A756" d="M668.252,230.749L668.252,230.749
					c40.85,0,74.268,33.421,74.268,74.268v80.84c0,40.85-33.418,74.268-74.268,74.268l0,0c-40.85,0-74.271-33.418-74.271-74.268
					v-1.895c-9.421-2.686-16.322-11.357-16.322-21.641s6.901-18.958,16.322-21.644v-35.661
					C593.981,264.17,627.402,230.749,668.252,230.749z"/>
				<path fill-rule="evenodd" clip-rule="evenodd" fill="#FCB975" d="M668.252,230.749L668.252,230.749
					c10.124,0,19.795,2.057,28.61,5.768c2.936,7.962,4.537,16.553,4.537,25.498v123.841c0,33.721-22.776,62.379-53.707,71.351
					c-30.932-8.972-53.711-37.627-53.711-71.351v-1.895c-9.421-2.686-16.322-11.357-16.322-21.641s6.901-18.958,16.322-21.644
					v-35.661C593.981,264.17,627.402,230.749,668.252,230.749z"/>
				<path fill-rule="evenodd" clip-rule="evenodd" fill="#62280E" d="M593.513,310.143h23.438v40.781
					c0,6.445-5.273,11.719-11.719,11.719h-11.719V310.143z"/>
				<path fill-rule="evenodd" clip-rule="evenodd" fill="#421B0B" d="M668.252,219.733L668.252,219.733
					c46.634,0,84.792,38.158,84.792,84.792v11.683c-23.838-10.335-42.744-29.899-52.204-54.193
					c-14.18,36.41-49.573,62.207-90.996,62.207c-9.141,0-17.991-1.26-26.384-3.61v-16.087
					C583.46,257.891,621.618,219.733,668.252,219.733z"/>
				<path fill-rule="evenodd" clip-rule="evenodd" fill="#62280E" d="M668.252,219.733L668.252,219.733
					c10.335,0,20.257,1.881,29.434,5.306c2.103,9.342,3.216,19.056,3.216,29.03c0,2.852-0.101,5.68-0.276,8.486
					c-14.319,36.123-49.563,61.667-90.781,61.667c-9.141,0-17.991-1.26-26.384-3.61v-16.087
					C583.46,257.891,621.618,219.733,668.252,219.733z"/>
				<path fill-rule="evenodd" clip-rule="evenodd" fill="#421B0B" d="M686.758,406.973h20.798c0,11.487-9.313,20.797-20.798,20.797
					c-11.487,0-20.801-9.31-20.801-20.797H686.758z"/>
				<path fill-rule="evenodd" clip-rule="evenodd" fill="#FFFFFF" d="M673.64,371.243c12.393,0,22.5-10.107,22.5-22.5
					c0-12.396-10.107-22.503-22.5-22.503s-22.504,10.107-22.504,22.503C651.136,361.136,661.247,371.243,673.64,371.243z"/>
				<rect x="691.409" y="338.525" fill-rule="evenodd" clip-rule="evenodd" fill="#FFFFFF" width="19.063" height="3.281"/>
				<path fill-rule="evenodd" clip-rule="evenodd" fill="#E6E7E8" d="M728.239,371.243c12.393,0,22.503-10.107,22.503-22.5
					c0-12.396-10.11-22.503-22.503-22.503s-22.5,10.107-22.5,22.503C705.739,361.136,715.847,371.243,728.239,371.243z"/>
				<rect x="701.399" y="338.525" fill-rule="evenodd" clip-rule="evenodd" fill="#E6E7E8" width="9.072" height="3.281"/>
				<path fill-rule="evenodd" clip-rule="evenodd" fill="#2D2D7E" d="M660.195,887.259v348.154h36.204V867.969
					C687.292,878.35,674.541,885.462,660.195,887.259z"/>
				<path fill-rule="evenodd" clip-rule="evenodd" fill="#421B0B" d="M660.195,1231.768h85.979c12.377,0,22.5,10.127,22.5,22.5v22.5
					H660.195V1231.768z"/>
				<path fill-rule="evenodd" clip-rule="evenodd" fill="#62280E" d="M545.999,1244.844h74.545c8.779,0,15.963,7.181,15.963,15.963
					v15.961h-90.508V1244.844z"/>
				<path fill-rule="evenodd" clip-rule="evenodd" fill="#62280E" d="M660.195,1244.844h74.544c8.779,0,15.961,7.181,15.961,15.963
					v15.961h-90.505V1244.844z"/>
				<rect x="616.819" y="338.525" fill-rule="evenodd" clip-rule="evenodd" fill="#E6E7E8" width="38.151" height="3.281"/>
			</g>
		</g>
		<g>
			<g>
				<rect x="1250.12" y="855.299" fill-rule="evenodd" clip-rule="evenodd" fill="#892B1A" width="28.969" height="421.469"/>
				<path fill-rule="evenodd" clip-rule="evenodd" fill="#892B1A" d="M812.888,855.299v421.064c0,0.225-0.183,0.404-0.404,0.404
					h-28.16c-0.222,0-0.404-0.18-0.404-0.404V855.299H812.888z"/>
				<path fill-rule="evenodd" clip-rule="evenodd" fill="#3A1809" d="M812.888,855.299v421.064c0,0.225-0.183,0.404-0.404,0.404
					h-13.675c-0.222,0-0.403-0.18-0.403-0.404V855.299H812.888z"/>
				<path fill-rule="evenodd" clip-rule="evenodd" fill="#3A1809" d="M738.408,879.424h585.876
					c13.164,0,23.936-10.769,23.936-23.936l0,0c0-13.168-10.771-23.936-23.936-23.936H738.724
					c-13.167,0-23.936,10.768-23.936,23.936v0.315C714.788,868.795,725.417,879.424,738.408,879.424z"/>
				<path fill-rule="evenodd" clip-rule="evenodd" fill="#892B1A" d="M1348.22,855.488L1348.22,855.488
					c0-13.168-10.771-23.936-23.936-23.936H738.724c-13.167,0-23.936,10.768-23.936,23.936l0,0H1348.22z"/>
				<rect x="767.588" y="932.835" fill-rule="evenodd" clip-rule="evenodd" fill="#3A1809" width="527.829" height="30.368"/>
				<path fill-rule="evenodd" clip-rule="evenodd" fill="#3A1809" d="M1279.089,855.299v421.064c0,0.225-0.186,0.404-0.404,0.404
					h-13.678c-0.222,0-0.404-0.18-0.404-0.404V855.299H1279.089z"/>
				<rect x="767.588" y="932.835" fill-rule="evenodd" clip-rule="evenodd" fill="#892B1A" width="527.829" height="15.183"/>
			</g>
			<g>
				<g>
					<g>
						<rect x="1180.954" y="632.907" fill-rule="evenodd" clip-rule="evenodd" fill="#E1F4FD" width="19.534" height="90.635"/>
						<path fill-rule="evenodd" clip-rule="evenodd" fill="#C3DCE8" d="M1197.024,632.907h3.464v41.315
							c-3.128-1.787-6.517-3.167-10.101-4.063v-31.556h0.943C1194.463,638.604,1197.024,636.042,1197.024,632.907z"/>
						<path fill-rule="evenodd" clip-rule="evenodd" fill="#E1F4FD" d="M1190.723,749.173c22.09,0,40.107-18.018,40.107-40.107
							s-18.018-40.107-40.107-40.107c-22.093,0-40.107,18.018-40.107,40.107S1168.63,749.173,1190.723,749.173z"/>
						<path fill-rule="evenodd" clip-rule="evenodd" fill="#C3DCE8" d="M1190.723,668.958c22.148,0,40.107,17.959,40.107,40.107
							c0,22.152-17.959,40.107-40.107,40.107c-1.712,0-3.398-0.107-5.052-0.313c19.769-2.487,35.059-19.355,35.059-39.795
							c0-18.779-12.91-34.544-30.342-38.906v-1.194L1190.723,668.958z"/>
						<path fill-rule="evenodd" clip-rule="evenodd" fill="#E1F4FD" d="M1180.013,627.21h21.42c3.131,0,5.693,2.562,5.693,5.697l0,0
							c0,3.135-2.563,5.697-5.693,5.697h-21.42c-3.135,0-5.696-2.562-5.696-5.697l0,0
							C1174.316,629.772,1176.878,627.21,1180.013,627.21z"/>
						<path fill-rule="evenodd" clip-rule="evenodd" fill="#C3DCE8" d="M1191.331,627.21h10.102c3.131,0,5.693,2.562,5.693,5.697
							l0,0c0,3.135-2.563,5.697-5.693,5.697h-10.102C1198.708,638.604,1199.092,627.21,1191.331,627.21z"/>
						<path fill-rule="evenodd" clip-rule="evenodd" fill="#3CAAE1" d="M1190.723,709.065h-33.994
							c0,18.776,15.218,33.994,33.994,33.994c18.772,0,33.994-15.218,33.994-33.994H1190.723z"/>
						<path fill-rule="evenodd" clip-rule="evenodd" fill="#398EB6" d="M1208.073,738.304c9.964-5.928,16.644-16.8,16.644-29.238
							h-3.987C1220.729,720.596,1215.862,730.986,1208.073,738.304z"/>
					</g>
					<g>
						<path fill-rule="evenodd" clip-rule="evenodd" fill="#FFFFFF" d="M1184.248,784.645h12.946v34.023
							c0,0.017-0.01,0.029-0.026,0.029h-12.894c-0.017,0-0.026-0.013-0.026-0.029V784.645z"/>
						<path fill-rule="evenodd" clip-rule="evenodd" fill="#FFFFFF" d="M1194.089,784.645h5.508v7.1
							c0,1.518-1.237,2.754-2.754,2.754h-2.741c-0.007,0-0.013-0.006-0.013-0.013V784.645z"/>
						<path fill-rule="evenodd" clip-rule="evenodd" fill="#FFFFFF" d="M1186.999,784.645h-5.505v18.271
							c0,1.514,1.237,2.754,2.751,2.754h2.744c0.006,0,0.01-0.006,0.01-0.013V784.645z"/>
						<path fill-rule="evenodd" clip-rule="evenodd" fill="#FFFFFF" d="M1202.256,818.697v-2.754c0-1.517-1.237-2.754-2.754-2.754
							h-17.562c-1.514,0-2.751,1.237-2.751,2.754v2.741c0,0.007,0.003,0.013,0.01,0.013H1202.256z"/>
						<path fill-rule="evenodd" clip-rule="evenodd" fill="#F36C21" d="M1190.723,757.568c3.643,3.262,5.938,8.001,5.938,13.277
							c0,5.273-2.295,10.014-5.938,13.275c-3.643-3.262-5.938-8.002-5.938-13.275C1184.785,765.569,1187.08,760.83,1190.723,757.568
							z"/>
						<path fill-rule="evenodd" clip-rule="evenodd" fill="#ED1C24" d="M1190.723,764.605c2.347,2.104,3.825,5.156,3.825,8.559
							c0,3.398-1.479,6.455-3.825,8.555c-2.351-2.1-3.828-5.156-3.828-8.555C1186.895,769.762,1188.372,766.709,1190.723,764.605z"
							/>
					</g>
					<path fill-rule="evenodd" clip-rule="evenodd" fill="#3A1809" d="M1152.52,818.809h121.917c0.798,0,1.449,0.654,1.449,1.451
						v10.153c0,0.798-0.651,1.452-1.449,1.452H1152.52c-0.794,0-1.448-0.654-1.448-1.452V820.26
						C1151.071,819.463,1151.726,818.809,1152.52,818.809z"/>
					<path fill-rule="evenodd" clip-rule="evenodd" fill="#3A1809" d="M1260.091,632.76v194.072c0,0.427-0.348,0.771-0.774,0.771
						h-5.43c-0.43,0-0.778-0.345-0.778-0.771V632.76c0-0.426,0.349-0.775,0.778-0.775h5.43
						C1259.743,631.985,1260.091,632.334,1260.091,632.76z"/>
					<path fill-rule="evenodd" clip-rule="evenodd" fill="#3A1809" d="M1166.716,641.54h103.643c0.43,0,0.774,0.348,0.774,0.775
						v5.433c0,0.427-0.345,0.775-0.774,0.775h-103.643c-0.427,0-0.775-0.348-0.775-0.775v-5.433
						C1165.94,641.888,1166.289,641.54,1166.716,641.54z"/>
					<path fill-rule="evenodd" clip-rule="evenodd" fill="#892B1A" d="M1256.687,653.011c4.434,0,8.047-3.613,8.047-8.047
						s-3.613-8.047-8.047-8.047s-8.047,3.613-8.047,8.047S1252.253,653.011,1256.687,653.011z"/>
				</g>
				<g>
					<path fill-rule="evenodd" clip-rule="evenodd" fill="#C3DCE8" d="M1071.328,728.59h19.534v81.533
						c0,5.004-4.095,9.099-9.102,9.099h-1.331c-5.007,0-9.102-4.095-9.102-9.099V728.59z"/>
					<path fill-rule="evenodd" clip-rule="evenodd" fill="#E1F4FD" d="M1071.328,728.59h9.766v81.533
						c0,3.486-1.985,6.53-4.883,8.057c-2.897-1.526-4.883-4.57-4.883-8.057V728.59z"/>
					<path fill-rule="evenodd" clip-rule="evenodd" fill="#7BA940" d="M1074.597,755.755h12.998v54.248
						c0,3.33-2.725,6.058-6.059,6.058h-0.885c-3.33,0-6.055-2.728-6.055-6.058V755.755z"/>
					<path fill-rule="evenodd" clip-rule="evenodd" fill="#A6CE39" d="M1074.597,755.755h6.497v54.248
						c0,2.321-1.321,4.346-3.249,5.361c-1.927-1.016-3.248-3.04-3.248-5.361V755.755z"/>
					<path fill-rule="evenodd" clip-rule="evenodd" fill="#E1F4FD" d="M1070.384,722.894h21.42c3.131,0,5.696,2.562,5.696,5.693
						v0.003c0,3.131-2.565,5.693-5.696,5.693h-21.42c-3.131,0-5.693-2.562-5.693-5.693v-0.003
						C1064.69,725.456,1067.253,722.894,1070.384,722.894z"/>
					<path fill-rule="evenodd" clip-rule="evenodd" fill="#C3DCE8" d="M1023.274,728.59h19.531v81.533
						c0,5.004-4.095,9.099-9.102,9.099h-1.331c-5.003,0-9.099-4.095-9.099-9.099V728.59z"/>
					<path fill-rule="evenodd" clip-rule="evenodd" fill="#E1F4FD" d="M1022.331,722.894h21.419c3.132,0,5.693,2.562,5.693,5.693
						v0.003c0,3.131-2.562,5.693-5.693,5.693h-21.419c-3.135,0-5.697-2.562-5.697-5.693v-0.003
						C1016.634,725.456,1019.196,722.894,1022.331,722.894z"/>
					<path fill-rule="evenodd" clip-rule="evenodd" fill="#3A1809" d="M996.11,818.809h121.917c0.794,0,1.448,0.654,1.448,1.451
						v10.153c0,0.798-0.654,1.452-1.448,1.452H996.11c-0.798,0-1.452-0.654-1.452-1.452V820.26
						C994.658,819.463,995.313,818.809,996.11,818.809z"/>
					<g>
						<path fill-rule="evenodd" clip-rule="evenodd" fill="#3A1809" d="M1012.637,767.317v59.512c0,0.427-0.349,0.774-0.774,0.774
							h-5.434c-0.426,0-0.774-0.348-0.774-0.774v-59.512c0-0.427,0.349-0.774,0.774-0.774h5.434
							C1012.288,766.543,1012.637,766.891,1012.637,767.317z"/>
						<path fill-rule="evenodd" clip-rule="evenodd" fill="#3A1809" d="M1108.483,767.317v59.512c0,0.427-0.352,0.774-0.778,0.774
							h-5.43c-0.43,0-0.778-0.348-0.778-0.774v-59.512c0-0.427,0.349-0.774,0.778-0.774h5.43
							C1108.132,766.543,1108.483,766.891,1108.483,767.317z"/>
					</g>
					<path fill-rule="evenodd" clip-rule="evenodd" fill="#C3DCE8" d="M1081.702,722.894h10.102c3.131,0,5.696,2.562,5.696,5.693
						v0.003c0,3.131-2.565,5.693-5.696,5.693h-10.102C1089.079,734.284,1089.463,722.894,1081.702,722.894z"/>
					<path fill-rule="evenodd" clip-rule="evenodd" fill="#E1F4FD" d="M1023.274,728.59h9.766v81.533
						c0,3.486-1.985,6.53-4.883,8.057c-2.896-1.526-4.883-4.57-4.883-8.057V728.59z"/>
					<path fill-rule="evenodd" clip-rule="evenodd" fill="#C3DCE8" d="M1033.649,722.894h10.101c3.132,0,5.693,2.562,5.693,5.693
						v0.003c0,3.131-2.562,5.693-5.693,5.693h-10.101C1041.025,734.284,1041.409,722.894,1033.649,722.894z"/>
					<path fill-rule="evenodd" clip-rule="evenodd" fill="#398EB6" d="M1026.543,782.559h12.995v27.444
						c0,3.33-2.725,6.058-6.055,6.058h-0.886c-3.33,0-6.055-2.728-6.055-6.058V782.559z"/>
					<path fill-rule="evenodd" clip-rule="evenodd" fill="#3CAAE1" d="M1026.543,782.559h6.497v27.444
						c0,2.321-1.321,4.346-3.248,5.361c-1.928-1.016-3.249-3.04-3.249-5.361V782.559z"/>
					<path fill-rule="evenodd" clip-rule="evenodd" fill="#3A1809" d="M1000.188,763.018h113.76c0.427,0,0.775,0.352,0.775,0.777
						v5.43c0,0.43-0.349,0.778-0.775,0.778h-113.76c-0.43,0-0.777-0.349-0.777-0.778v-5.43
						C999.411,763.369,999.759,763.018,1000.188,763.018z"/>
				</g>
				<g>
					<path fill-rule="evenodd" clip-rule="evenodd" fill="#092A3E" d="M917.559,795.104l-46.351,1.296
						c1.539,2.295,2.441,5.052,2.441,8.011l0,0c0,7.939-6.498,14.438-14.44,14.438h-1.394h-9.268c-1.146,0-2.295,0-3.443,0
						c-1.742,0-3.168,1.426-3.168,3.17v6.677c0,1.745,1.426,3.171,3.168,3.171h97.578c1.744,0,3.17-1.426,3.17-3.171v-6.677
						c0-1.744-1.426-3.17-3.17-3.17h-10.759h-3.343c-7.943,0-14.44-6.498-14.44-14.438l0,0
						C914.141,800.872,915.43,797.623,917.559,795.104z"/>
					<path fill-rule="evenodd" clip-rule="evenodd" fill="#07141F" d="M917.559,795.104l-23.665,0.661v36.101h48.789
						c1.744,0,3.17-1.426,3.17-3.171v-6.677c0-1.744-1.426-3.17-3.17-3.17h-10.759h-3.343c-7.943,0-14.44-6.498-14.44-14.44l0,0
						C914.141,800.872,915.43,797.623,917.559,795.104z"/>
					<path fill-rule="evenodd" clip-rule="evenodd" fill="#07141F" d="M917.559,795.104l-4.421,0.124
						c-4.609,1.712-9.593,2.646-14.798,2.646c-4.368,0-8.581-0.661-12.546-1.882l-14.586,0.407c1.539,2.295,2.441,5.052,2.441,8.008
						l0,0c0,0.651-0.043,1.292-0.127,1.924c7.496,3.655,15.918,5.71,24.817,5.71c5.827,0,11.452-0.883,16.741-2.517
						c-0.608-1.592-0.94-3.317-0.94-5.117l0,0C914.141,800.872,915.43,797.623,917.559,795.104z"/>
					<path fill-rule="evenodd" clip-rule="evenodd" fill="#22A8B4" d="M878.05,697.266c-21.289,8.164-36.406,28.792-36.406,52.952
						c0,31.312,25.385,56.696,56.696,56.696c20.088,0,37.734-10.446,47.806-26.201h-18.16c-7.66,7.447-18.115,12.037-29.646,12.037
						c-23.489,0-42.529-19.043-42.529-42.532c0-16.143,8.991-30.182,22.239-37.389V697.266z"/>
					<path fill-rule="evenodd" clip-rule="evenodd" fill="#008593" d="M939.138,789.586c2.62-2.711,4.971-5.684,7.008-8.873h-18.16
						c-3.867,3.763-8.451,6.793-13.525,8.873H939.138z"/>
					<path fill-rule="evenodd" clip-rule="evenodd" fill="#008593" d="M935.446,780.713h-7.461
						c-7.66,7.451-18.115,12.037-29.646,12.037c-23.489,0-42.529-19.043-42.529-42.532c0-16.143,8.991-30.182,22.239-37.386v-6.54
						c-16.92,7.529-28.724,24.486-28.724,44.203c0,26.708,21.65,48.359,48.359,48.359
						C912.962,798.854,926.582,791.771,935.446,780.713z"/>
					<path fill-rule="evenodd" clip-rule="evenodd" fill="#07141F" d="M877.478,720.319c7.906,0,14.355-6.449,14.355-14.355
						s-6.449-14.355-14.355-14.355c-7.907,0-14.355,6.449-14.355,14.355S869.57,720.319,877.478,720.319z"/>
					<path fill-rule="evenodd" clip-rule="evenodd" fill="#092A3E" d="M869.319,694.153c-3.743,2.588-6.197,6.914-6.197,11.813
						c0,7.259,5.391,13.262,12.386,14.219c2.321-1.429,4.199-3.506,5.394-5.97L869.319,694.153z"/>
					<path fill-rule="evenodd" clip-rule="evenodd" fill="#ED1C24" d="M868.213,651.354l49.495,85.726
						c0.225,0.391,0.092,0.895-0.299,1.123l-5.986,3.454c-0.391,0.225-0.896,0.091-1.12-0.299l-49.495-85.729
						c-0.225-0.391-0.092-0.895,0.299-1.12l5.986-3.457C867.483,650.827,867.988,650.96,868.213,651.354z"/>
					<path fill-rule="evenodd" clip-rule="evenodd" fill="#A71C20" d="M868.213,651.354l49.495,85.726
						c0.225,0.391,0.092,0.895-0.299,1.123l-1.781,1.025l-50.315-87.148l1.78-1.029C867.483,650.827,867.988,650.96,868.213,651.354
						z"/>
					<path fill-rule="evenodd" clip-rule="evenodd" fill="#07141F" d="M860.579,645.68l-12.435,7.178
						c3.965,6.865,12.744,9.219,19.612,5.254c6.865-3.965,9.219-12.744,5.254-19.609L860.579,645.68z"/>
					<path fill-rule="evenodd" clip-rule="evenodd" fill="#092A3E" d="M860.579,645.68l-12.435,7.178
						c3.379,5.85,10.251,8.421,16.458,6.605c6.052-4.187,8.112-12.253,4.743-18.845L860.579,645.68z"/>
					<path fill-rule="evenodd" clip-rule="evenodd" fill="#22A8B4" d="M880.615,658.04l37.503,64.958
						c0.615,1.067,0.248,2.444-0.823,3.063l-16.331,9.427c-1.068,0.618-2.445,0.247-3.063-0.82l-37.5-64.955
						c-0.618-1.071-0.247-2.448,0.82-3.063l16.331-9.431C878.62,656.604,879.997,656.973,880.615,658.04z"/>
					<path fill-rule="evenodd" clip-rule="evenodd" fill="#008593" d="M880.615,658.04l37.503,64.958
						c0.615,1.067,0.248,2.444-0.823,3.063l-6.95,4.014l-39.746-68.841l6.953-4.014C878.62,656.604,879.997,656.973,880.615,658.04z
						"/>
					<path fill-rule="evenodd" clip-rule="evenodd" fill="#ED1C24" d="M900.244,772.656h52.578c0.801,0,1.452,0.65,1.452,1.448
						v10.156c0,0.798-0.651,1.452-1.452,1.452h-52.578c-0.798,0-1.452-0.654-1.452-1.452v-10.156
						C898.792,773.307,899.446,772.656,900.244,772.656z"/>
					<path fill-rule="evenodd" clip-rule="evenodd" fill="#A71C20" d="M954.274,775.162v9.099c0,0.798-0.651,1.452-1.452,1.452
						h-26.638v-10.551H954.274z"/>
					<path fill-rule="evenodd" clip-rule="evenodd" fill="#07141F" d="M887.591,769.307h77.888c0.801,0,1.452,0.654,1.452,1.451
						v10.153c0,0.801-0.651,1.452-1.452,1.452h-77.888c-0.801,0-1.451-0.651-1.451-1.452v-10.153
						C886.14,769.961,886.79,769.307,887.591,769.307z"/>
					<path fill-rule="evenodd" clip-rule="evenodd" fill="#092A3E" d="M887.142,773.346h61.592c0.554,0,1.003,0.453,1.003,1.003
						v7.015c0,0.551-0.449,1-1.003,1h-61.592c-0.553,0-1.002-0.449-1.002-1v-7.015C886.14,773.799,886.589,773.346,887.142,773.346z
						"/>
				</g>
			</g>
		</g>
	</g>
	<path fill-rule="evenodd" clip-rule="evenodd" fill="#FEDA5B" d="M1220.612,481.484c24.036,0,43.525,19.485,43.525,43.525
		c0-24.04,19.485-43.525,43.525-43.525c-24.04,0-43.525-19.489-43.525-43.529C1264.138,461.995,1244.648,481.484,1220.612,481.484z"
		/>
	<path fill-rule="evenodd" clip-rule="evenodd" fill="#FEDA5B" d="M501.384,230.592c24.039,0,43.525,19.489,43.525,43.529
		c0-24.04,19.488-43.529,43.525-43.529c-24.037,0-43.525-19.486-43.525-43.525C544.909,211.106,525.423,230.592,501.384,230.592z"/>
	<path fill-rule="evenodd" clip-rule="evenodd" fill="#FEDA5B" d="M153.386,606.595c24.036,0,43.525,19.486,43.525,43.525
		c0-24.04,19.485-43.525,43.525-43.525c-24.04,0-43.525-19.489-43.525-43.525C196.911,587.106,177.422,606.595,153.386,606.595z"/>
	<path fill-rule="evenodd" clip-rule="evenodd" fill="#FEDA5B" d="M1025.251,165.833c2.428,0.007,4.781,0.202,7.178,0.605
		c1.816,0.303,3.047,2.019,2.747,3.835c-0.3,1.813-2.015,3.043-3.831,2.744c-3.305-0.557-6.625-0.674-9.955-0.31
		c-1.822,0.205-3.477-1.106-3.682-2.936c-0.208-1.83,1.104-3.483,2.934-3.691C1022.077,165.875,1023.796,165.836,1025.251,165.833
		L1025.251,165.833z M1000.586,173.786c1.487-1.087,3.574-0.762,4.658,0.726c1.084,1.487,0.762,3.574-0.726,4.658
		c-1.66,1.204-3.2,2.513-4.633,3.978c-1.285,1.315-3.398,1.341-4.717,0.056c-1.314-1.289-1.338-3.398-0.052-4.717
		C996.819,176.754,998.62,175.211,1000.586,173.786L1000.586,173.786z M984.466,197.142c0.469-1.78,2.295-2.842,4.076-2.373
		c1.777,0.472,2.838,2.295,2.369,4.076c-0.518,1.999-0.869,3.939-1.058,6l0.003-0.02c-0.152,1.836-1.764,3.2-3.597,3.05
		c-1.833-0.153-3.2-1.764-3.05-3.597C983.562,201.712,983.806,199.681,984.466,197.142L984.466,197.142z M986.797,225.449
		c-0.769-1.673-0.036-3.652,1.638-4.421c1.67-0.768,3.652-0.039,4.42,1.634c0.856,1.869,1.826,3.617,2.982,5.319
		c1.038,1.521,0.647,3.594-0.869,4.632c-1.521,1.039-3.594,0.651-4.636-0.869C988.968,229.739,987.806,227.656,986.797,225.449
		L986.797,225.449z M1006.526,245.866c-1.653-0.807-2.34-2.806-1.529-4.459c0.807-1.654,2.803-2.337,4.456-1.53
		c1.774,0.869,3.757,1.699,5.661,2.23c1.768,0.511,2.786,2.36,2.275,4.127c-0.512,1.768-2.36,2.787-4.128,2.275
		C1010.921,247.815,1008.718,246.94,1006.526,245.866L1006.526,245.866z M1034.714,249.17c-1.794,0.417-3.584-0.703-4.001-2.497
		c-0.413-1.793,0.706-3.584,2.5-3.997c1.931-0.42,3.972-1.094,5.788-1.865c1.695-0.716,3.652,0.078,4.368,1.774
		c0.716,1.693-0.075,3.652-1.771,4.369C1039.424,247.868,1037.019,248.672,1034.714,249.17L1034.714,249.17z M1058.63,233.857
		c-1.12,1.461-3.213,1.735-4.675,0.615c-1.458-1.12-1.731-3.216-0.612-4.675c1.254-1.624,2.348-3.307,3.311-5.117
		c0.856-1.627,2.875-2.252,4.502-1.393c1.628,0.856,2.253,2.875,1.396,4.502C1061.394,229.944,1060.124,231.92,1058.63,233.857
		L1058.63,233.857z M1067.435,206.868c0.059,1.839-1.383,3.379-3.223,3.438c-1.839,0.059-3.382-1.383-3.44-3.223
		c-0.056-1.979-0.261-4.121-0.677-6.058c-0.368-1.8,0.794-3.564,2.598-3.933c1.8-0.371,3.564,0.794,3.932,2.595
		C1067.112,202.018,1067.366,204.489,1067.435,206.868L1067.435,206.868z M1057.161,180.417c1.208,1.393,1.055,3.502-0.335,4.707
		s-3.496,1.051-4.7-0.338c-1.352-1.563-2.777-2.92-4.359-4.245c-1.426-1.162-1.641-3.262-0.479-4.688s3.262-1.641,4.688-0.479
		C1053.86,176.907,1055.563,178.59,1057.161,180.417z"/>
	<path fill-rule="evenodd" clip-rule="evenodd" fill="#FEDA5B" d="M277.591,1090.677c2.428,0.007,4.782,0.202,7.178,0.605
		c1.816,0.3,3.047,2.019,2.748,3.835c-0.3,1.816-2.015,3.043-3.832,2.744c-3.301-0.557-6.625-0.674-9.955-0.31
		c-1.823,0.205-3.477-1.106-3.682-2.937c-0.208-1.829,1.104-3.482,2.933-3.691C274.417,1090.723,276.136,1090.68,277.591,1090.677
		L277.591,1090.677z M252.927,1098.629c1.487-1.084,3.574-0.762,4.658,0.727c1.084,1.487,0.762,3.574-0.726,4.658
		c-1.66,1.204-3.2,2.513-4.632,3.978c-1.289,1.315-3.398,1.341-4.717,0.056c-1.315-1.289-1.338-3.398-0.052-4.717
		C249.16,1101.598,250.96,1100.055,252.927,1098.629L252.927,1098.629z M236.807,1121.985c0.469-1.78,2.295-2.842,4.076-2.373
		c1.777,0.472,2.838,2.295,2.37,4.075c-0.518,2.002-0.869,3.939-1.058,6l0.003-0.02c-0.153,1.836-1.764,3.199-3.597,3.05
		c-1.836-0.153-3.2-1.765-3.047-3.597C235.902,1126.556,236.146,1124.524,236.807,1121.985L236.807,1121.985z M239.138,1150.293
		c-0.769-1.674-0.036-3.652,1.637-4.421c1.67-0.769,3.652-0.039,4.42,1.634c0.856,1.869,1.826,3.617,2.982,5.319
		c1.039,1.521,0.651,3.594-0.869,4.636c-1.52,1.035-3.594,0.647-4.632-0.873C241.309,1154.583,240.146,1152.5,239.138,1150.293
		L239.138,1150.293z M258.867,1170.709c-1.653-0.807-2.34-2.806-1.53-4.459c0.807-1.654,2.803-2.338,4.457-1.53
		c1.774,0.869,3.76,1.699,5.661,2.229c1.768,0.512,2.787,2.36,2.275,4.128s-2.36,2.786-4.127,2.275
		C263.262,1172.659,261.058,1171.783,258.867,1170.709L258.867,1170.709z M287.054,1174.017c-1.793,0.413-3.584-0.706-4-2.5
		c-0.414-1.794,0.706-3.584,2.5-3.997c1.93-0.42,3.971-1.094,5.788-1.862c1.696-0.716,3.652,0.075,4.369,1.771
		c0.716,1.693-0.075,3.652-1.771,4.369C291.765,1172.711,289.355,1173.516,287.054,1174.017L287.054,1174.017z M310.97,1158.701
		c-1.119,1.461-3.213,1.734-4.674,0.615c-1.459-1.12-1.732-3.217-0.612-4.675c1.253-1.624,2.344-3.308,3.311-5.117
		c0.856-1.628,2.874-2.253,4.502-1.394s2.253,2.875,1.396,4.502C313.733,1154.788,312.464,1156.764,310.97,1158.701L310.97,1158.701
		z M319.775,1131.712c0.059,1.839-1.384,3.379-3.223,3.438s-3.382-1.384-3.44-3.223c-0.056-1.979-0.261-4.121-0.678-6.055
		c-0.371-1.804,0.795-3.567,2.598-3.936c1.801-0.371,3.564,0.794,3.933,2.595C319.453,1126.861,319.707,1129.332,319.775,1131.712
		L319.775,1131.712z M309.502,1105.26c1.208,1.394,1.058,3.503-0.335,4.707c-1.391,1.205-3.496,1.052-4.701-0.338
		c-1.351-1.563-2.776-2.917-4.358-4.245c-1.429-1.159-1.641-3.262-0.479-4.688s3.262-1.641,4.688-0.479
		C306.201,1101.751,307.903,1103.434,309.502,1105.26z"/>
	<path fill-rule="evenodd" clip-rule="evenodd" fill="#FEDA5B" d="M1180.964,1104.57c2.428,0.01,4.781,0.205,7.178,0.611
		c1.816,0.3,3.047,2.016,2.747,3.828c-0.3,1.816-2.015,3.047-3.831,2.748c-3.305-0.561-6.625-0.674-9.955-0.313
		c-1.822,0.208-3.477-1.104-3.682-2.934c-0.208-1.829,1.104-3.482,2.934-3.688C1177.79,1104.615,1179.509,1104.576,1180.964,1104.57
		L1180.964,1104.57z M1156.299,1112.525c1.487-1.087,3.574-0.762,4.658,0.727c1.084,1.487,0.762,3.574-0.726,4.658
		c-1.66,1.204-3.2,2.513-4.633,3.978c-1.289,1.315-3.398,1.341-4.717,0.052c-1.314-1.282-1.338-3.395-0.052-4.713
		C1152.532,1115.494,1154.333,1113.951,1156.299,1112.525L1156.299,1112.525z M1140.179,1135.882
		c0.469-1.78,2.295-2.842,4.076-2.373c1.777,0.472,2.838,2.295,2.369,4.075c-0.518,1.999-0.869,3.939-1.058,6l0.003-0.02
		c-0.152,1.836-1.764,3.199-3.597,3.05c-1.836-0.153-3.2-1.765-3.047-3.597C1139.274,1140.452,1139.519,1138.421,1140.179,1135.882
		L1140.179,1135.882z M1142.51,1164.189c-0.769-1.67-0.036-3.652,1.634-4.421c1.674-0.771,3.656-0.039,4.424,1.634
		c0.856,1.869,1.826,3.617,2.982,5.319c1.038,1.521,0.647,3.594-0.869,4.632c-1.521,1.039-3.598,0.651-4.636-0.869
		C1144.681,1168.479,1143.519,1166.396,1142.51,1164.189L1142.51,1164.189z M1162.239,1184.605c-1.653-0.807-2.34-2.806-1.529-4.459
		c0.807-1.654,2.803-2.338,4.456-1.53c1.774,0.869,3.76,1.699,5.661,2.229c1.768,0.512,2.786,2.36,2.275,4.128
		c-0.512,1.768-2.36,2.786-4.128,2.275C1166.634,1186.556,1164.431,1185.68,1162.239,1184.605L1162.239,1184.605z M1190.427,1187.91
		c-1.794,0.416-3.584-0.703-4.001-2.497c-0.413-1.794,0.706-3.584,2.5-4.001c1.931-0.416,3.972-1.09,5.788-1.861
		c1.695-0.717,3.652,0.078,4.368,1.773c0.716,1.696-0.075,3.652-1.771,4.369C1195.137,1186.607,1192.728,1187.412,1190.427,1187.91
		L1190.427,1187.91z M1214.343,1172.598c-1.12,1.461-3.213,1.734-4.675,0.615c-1.458-1.123-1.731-3.217-0.612-4.675
		c1.254-1.624,2.344-3.308,3.311-5.117c0.856-1.628,2.875-2.253,4.502-1.394c1.628,0.856,2.253,2.875,1.396,4.502
		C1217.106,1168.685,1215.837,1170.66,1214.343,1172.598L1214.343,1172.598z M1223.147,1145.608
		c0.059,1.839-1.383,3.379-3.223,3.438c-1.839,0.059-3.382-1.384-3.44-3.223c-0.056-1.979-0.261-4.118-0.677-6.058
		c-0.371-1.801,0.794-3.564,2.598-3.933c1.8-0.371,3.564,0.794,3.932,2.595C1222.825,1140.758,1223.079,1143.229,1223.147,1145.608
		L1223.147,1145.608z M1212.874,1119.156c1.208,1.394,1.059,3.503-0.335,4.707c-1.39,1.205-3.496,1.052-4.7-0.338
		c-1.352-1.563-2.777-2.92-4.359-4.242c-1.429-1.165-1.641-3.265-0.479-4.69c1.162-1.429,3.262-1.641,4.688-0.479
		C1209.573,1115.647,1211.276,1117.33,1212.874,1119.156z"/>
	<path fill-rule="evenodd" clip-rule="evenodd" fill="#FEDA5B" d="M1001.25,1204.648c24.036,0,43.525,19.488,43.525,43.528
		c0-24.04,19.485-43.528,43.525-43.528c-24.04,0-43.525-19.486-43.525-43.525C1044.775,1185.162,1025.286,1204.648,1001.25,1204.648
		z"/>
	<path fill-rule="evenodd" clip-rule="evenodd" fill="#FBAD18" d="M471.009,487.776c15.541,0,28.139,12.598,28.139,28.138
		c0-15.541,12.598-28.138,28.138-28.138c-15.54,0-28.138-12.598-28.138-28.138C499.147,475.179,486.55,487.776,471.009,487.776z"/>
	<path fill-rule="evenodd" clip-rule="evenodd" fill="#FBAD18" d="M1006.748,582.737c15.537,0,28.138,12.598,28.138,28.135
		c0-15.537,12.595-28.135,28.135-28.135c-15.54,0-28.135-12.598-28.135-28.138C1034.886,570.14,1022.285,582.737,1006.748,582.737z"
		/>
	<path fill-rule="evenodd" clip-rule="evenodd" fill="#FBAD18" d="M409.759,886.526c15.541,0,28.139,12.598,28.139,28.138
		c0-15.54,12.598-28.138,28.138-28.138c-15.54,0-28.138-12.598-28.138-28.138C437.897,873.929,425.3,886.526,409.759,886.526z"/>
	<path fill-rule="evenodd" clip-rule="evenodd" fill="#FBAD18" d="M941.78,1001.146c15.541,0,28.139,12.601,28.139,28.138
		c0-15.537,12.594-28.138,28.135-28.138c-15.541,0-28.135-12.595-28.135-28.135C969.919,988.551,957.321,1001.146,941.78,1001.146z"
		/>
	<path fill-rule="evenodd" clip-rule="evenodd" fill="#FBAD18" d="M801.647,698.525c3.854,0,6.998-3.145,6.998-6.999
		c0-3.857-3.145-7.002-6.998-7.002c-3.854,0-6.999,3.145-6.999,7.002C794.648,695.381,797.793,698.525,801.647,698.525z"/>
	<path fill-rule="evenodd" clip-rule="evenodd" fill="#FBAD18" d="M462.897,794.026c3.854,0,6.998-3.145,6.998-7.002
		c0-3.854-3.145-6.999-6.998-6.999c-3.857,0-7.002,3.145-7.002,6.999C455.896,790.882,459.04,794.026,462.897,794.026z"/>
	<path fill-rule="evenodd" clip-rule="evenodd" fill="#FBAD18" d="M1000.872,698.743c3.857,0,7.002-3.145,7.002-7.002
		c0-3.854-3.145-6.999-7.002-6.999c-3.854,0-6.998,3.145-6.998,6.999C993.874,695.599,997.019,698.743,1000.872,698.743z"/>
	<path fill-rule="evenodd" clip-rule="evenodd" fill="#FBAD18" d="M928.874,1050.742c3.857,0,7.002-3.145,7.002-7.002
		c0-3.854-3.145-6.999-7.002-6.999c-3.854,0-6.999,3.145-6.999,6.999C921.875,1047.598,925.02,1050.742,928.874,1050.742z"/>
	<path fill-rule="evenodd" clip-rule="evenodd" fill="#FBAD18" d="M857.897,1109.775c3.854,0,6.998-3.145,6.998-7.002
		c0-3.854-3.145-6.999-6.998-6.999c-3.857,0-6.999,3.145-6.999,6.999C850.898,1106.631,854.04,1109.775,857.897,1109.775z"/>
	<path fill-rule="evenodd" clip-rule="evenodd" fill="#FBAD18" d="M638.396,1096.025c3.857,0,7.002-3.145,7.002-7.002
		c0-3.854-3.145-6.999-7.002-6.999c-3.854,0-6.999,3.145-6.999,6.999C631.396,1092.881,634.541,1096.025,638.396,1096.025z"/>
	<path fill-rule="evenodd" clip-rule="evenodd" fill="#FBAD18" d="M414.873,659.743c3.854,0,6.999-3.145,6.999-7.002
		c0-3.854-3.145-6.999-6.999-6.999c-3.857,0-7.002,3.145-7.002,6.999C407.871,656.598,411.016,659.743,414.873,659.743z"/>
	<path fill-rule="evenodd" clip-rule="evenodd" fill="#FEDA5B" d="M312.871,477.741c3.857,0,7.002-3.145,7.002-6.999
		c0-3.854-3.145-7.002-7.002-7.002c-3.854,0-6.999,3.147-6.999,7.002C305.872,474.596,309.017,477.741,312.871,477.741z"/>
	<path fill-rule="evenodd" clip-rule="evenodd" fill="#FEDA5B" d="M1198.874,428.74c3.854,0,6.998-3.145,6.998-6.999
		c0-3.857-3.145-7.002-6.998-7.002c-3.857,0-7.002,3.145-7.002,7.002C1191.872,425.596,1195.017,428.74,1198.874,428.74z"/>
	<path fill-rule="evenodd" clip-rule="evenodd" fill="#FEDA5B" d="M1310.872,568.74c3.857,0,7.002-3.145,7.002-6.999
		c0-3.854-3.145-6.999-7.002-6.999c-3.854,0-6.998,3.145-6.998,6.999C1303.874,565.596,1307.019,568.74,1310.872,568.74z"/>
	<path fill-rule="evenodd" clip-rule="evenodd" fill="#FEDA5B" d="M908.874,227.741c3.854,0,6.998-3.145,6.998-6.999
		c0-3.854-3.145-6.999-6.998-6.999c-3.857,0-7.002,3.145-7.002,6.999C901.872,224.596,905.017,227.741,908.874,227.741z"/>
	<path fill-rule="evenodd" clip-rule="evenodd" fill="#FEDA5B" d="M1305.388,1128.525c3.857,0,7.002-3.145,7.002-7.002
		c0-3.854-3.145-6.999-7.002-6.999c-3.854,0-6.999,3.145-6.999,6.999C1298.389,1125.381,1301.533,1128.525,1305.388,1128.525z"/>
	<path fill-rule="evenodd" clip-rule="evenodd" fill="#FEDA5B" d="M1216.868,1011.744c3.857,0,6.999-3.145,6.999-7.002
		c0-3.854-3.142-6.998-6.999-6.998c-3.854,0-6.998,3.145-6.998,6.998C1209.87,1008.6,1213.015,1011.744,1216.868,1011.744z"/>
	<path fill-rule="evenodd" clip-rule="evenodd" fill="#FEDA5B" d="M457.894,1181.028c3.857,0,7.002-3.145,7.002-6.999
		c0-3.854-3.145-6.998-7.002-6.998c-3.854,0-6.998,3.145-6.998,6.998C450.896,1177.884,454.04,1181.028,457.894,1181.028z"/>
	<path fill-rule="evenodd" clip-rule="evenodd" fill="#FEDA5B" d="M204.769,1145.716c3.854,0,6.999-3.145,6.999-6.999
		c0-3.857-3.145-7.002-6.999-7.002s-6.999,3.145-6.999,7.002C197.771,1142.571,200.915,1145.716,204.769,1145.716z"/>
	<path fill-rule="evenodd" clip-rule="evenodd" fill="#FEDA5B" d="M199.766,699.153c3.854,0,6.999-3.145,6.999-7.002
		c0-3.854-3.145-6.999-6.999-6.999c-3.857,0-7.002,3.145-7.002,6.999C192.764,696.009,195.908,699.153,199.766,699.153z"/>
</g>
</svg>
